<svg width="28" height="32" viewBox="0 0 28 32" fill="none" xmlns="http://www.w3.org/2000/svg">
<path opacity="0.5" d="M19.3 19C19.6864 19 20 18.7759 20 18.5C20 18.224 19.6864 18 19.3 18H13.7C13.3136 18 13 18.224 13 18.5C13 18.776 13.3136 19 13.7 19H19.3V19Z" fill="white"/>
<path opacity="0.5" d="M19.3 13C19.6864 13 20 12.7759 20 12.5C20 12.224 19.6864 12 19.3 12H13.7C13.3136 12 13 12.224 13 12.5C13 12.776 13.3136 13 13.7 13H19.3V13Z" fill="white"/>
<path opacity="0.5" d="M22.3333 15H11.6667C11.2987 15 11 15.224 11 15.5C11 15.776 11.2987 16 11.6667 16H22.3333C22.7013 16 23 15.776 23 15.5C23 15.224 22.7013 15 22.3333 15Z" fill="white"/>
<path opacity="0.5" d="M22.3333 9H11.6667C11.2987 9 11 9.22401 11 9.5C11 9.77599 11.2987 10 11.6667 10H22.3333C22.7013 10 23 9.77599 23 9.5C23 9.22401 22.7013 9 22.3333 9Z" fill="white"/>
<path opacity="0.5" d="M22.3333 21H11.6667C11.2987 21 11 21.224 11 21.5C11 21.776 11.2987 22 11.6667 22H22.3333C22.7013 22 23 21.776 23 21.5C23 21.224 22.7013 21 22.3333 21Z" fill="white"/>
<path opacity="0.5" fill-rule="evenodd" clip-rule="evenodd" d="M3.33331 0H26C27.1027 0 28 0.897313 28 2V30C28 31.1027 27.1027 32 26 32H3.33337C2.23069 32 1.33337 31.1027 1.33337 30V26.6667H0.666687C0.298687 26.6667 0 26.368 0 26C0 25.632 0.298687 25.3333 0.666687 25.3333H1.33337V20H0.666687C0.298687 20 0 19.7014 0 19.3334C0 18.9654 0.298687 18.6667 0.666687 18.6667H1.33337V13.3334H0.666687C0.298687 13.3334 0 13.0347 0 12.6667C0 12.2987 0.298687 12 0.666687 12H1.33337V6.66669H0.666687C0.298687 6.66669 0 6.368 0 6C0 5.632 0.298687 5.33331 0.666687 5.33331H1.33331V2C1.33331 0.897313 2.23063 0 3.33331 0ZM26 30.6667C26.3667 30.6667 26.6667 30.368 26.6667 30V2C26.6667 1.632 26.3667 1.33331 26 1.33331H3.33337C2.96669 1.33331 2.66669 1.632 2.66669 2V5.33331H4.12269C4.39869 4.55869 5.132 4 6 4C7.10269 4 8 4.89731 8 6C8 7.10269 7.10269 8 6 8C5.132 8 4.39869 7.44131 4.12269 6.66663H2.66669V11.9999H4.12269C4.39869 11.2253 5.132 10.6666 6 10.6666C7.10269 10.6666 8 11.5639 8 12.6666C8 13.7693 7.10269 14.6666 6 14.6666C5.132 14.6666 4.39869 14.108 4.12269 13.3333H2.66669V18.6666H4.12269C4.39869 17.892 5.132 17.3333 6 17.3333C7.10269 17.3333 8 18.2306 8 19.3333C8 20.436 7.10269 21.3333 6 21.3333C5.132 21.3333 4.39869 20.7747 4.12269 20H2.66669V25.3333H4.12269C4.39869 24.5587 5.132 24 6 24C7.10269 24 8 24.8973 8 26C8 27.1027 7.10269 28 6 28C5.132 28 4.39869 27.4413 4.12262 26.6667H2.66663V30C2.66663 30.368 2.96662 30.6667 3.33331 30.6667H26ZM5.33331 26C5.33331 25.632 5.63331 25.3333 6 25.3333C6.36669 25.3333 6.66669 25.632 6.66669 26C6.66669 26.368 6.36669 26.6667 6 26.6667C5.63331 26.6667 5.33331 26.368 5.33331 26ZM6 18.6666C5.63331 18.6666 5.33331 18.9653 5.33331 19.3333C5.33331 19.7013 5.63331 20 6 20C6.36669 20 6.66669 19.7013 6.66669 19.3333C6.66669 18.9653 6.36669 18.6666 6 18.6666ZM5.33331 12.6667C5.33331 12.2987 5.63331 12 6 12C6.36669 12 6.66669 12.2987 6.66669 12.6667C6.66669 13.0347 6.36669 13.3334 6 13.3334C5.63331 13.3333 5.33331 13.0347 5.33331 12.6667ZM6 5.33331C5.63331 5.33331 5.33331 5.632 5.33331 6C5.33331 6.368 5.63331 6.66669 6 6.66669C6.36669 6.66669 6.66669 6.368 6.66669 6C6.66669 5.632 6.36669 5.33331 6 5.33331Z" fill="white"/>
</svg>
