<svg width="32" height="31" viewBox="0 0 32 31" fill="none" xmlns="http://www.w3.org/2000/svg">
<g opacity="0.5">
<path d="M30.5504 9.20924L28.5619 7.55208C28.2519 7.32684 27.8167 7.39358 27.5914 7.70504C27.3648 8.01507 27.4329 8.44887 27.7444 8.67554L29.7328 10.3327C30.2681 10.722 30.5879 11.3643 30.5879 12.0525V27.284C30.5879 28.4338 29.7064 29.3695 28.6233 29.3695H3.35492C2.2718 29.3695 1.39034 28.4338 1.39034 27.284V12.0525C1.39034 11.3643 1.71014 10.7219 2.24541 10.3312L5.09843 8.2568C5.40846 8.03156 5.478 7.5964 5.25139 7.28631C5.02615 6.97628 4.59236 6.90674 4.2809 7.13335L1.42788 9.20774C0.533898 9.85849 0 10.9221 0 12.0525V27.2839C0 29.1998 1.50439 30.7598 3.35492 30.7598H28.6233C30.4725 30.7598 31.9782 29.1998 31.9782 27.2839V12.0525C31.9783 10.9208 31.4444 9.85713 30.5504 9.20924Z" fill="white"/>
<path d="M22.5444 2.76264L20.6327 1.3723C18.1162 -0.457434 14.7376 -0.457434 12.221 1.3723L10.287 2.77932C9.97555 3.00456 9.90745 3.43972 10.1327 3.75119C10.269 3.93888 10.4803 4.03762 10.6958 4.03762C10.8376 4.03762 10.9808 3.99311 11.1045 3.90415L13.0386 2.49569C15.0657 1.02193 17.7881 1.02193 19.8152 2.49569L21.7269 3.88603C22.0369 4.1099 22.4707 4.04316 22.6974 3.73307C22.924 3.42304 22.8559 2.98788 22.5444 2.76264Z" fill="white"/>
<path d="M29.3 12.3103C29.0872 11.9891 28.6562 11.9043 28.3364 12.117L19.3394 18.1137C17.4374 19.3817 14.9793 19.3817 13.0773 18.1137L4.08018 12.117C3.75901 11.9043 3.32802 11.9905 3.11666 12.3103C2.90394 12.6301 2.99016 13.0611 3.3099 13.2738L12.3069 19.2704C13.4929 20.0616 14.8513 20.4564 16.2097 20.4564C17.5681 20.4564 18.9264 20.0601 20.1096 19.2704L29.1067 13.2738C29.4265 13.0611 29.5127 12.6301 29.3 12.3103Z" fill="white"/>
<path d="M27.9409 3H5.6952C5.31146 3 5 3.3114 5 3.69514V14.1228C5 14.5066 5.31146 14.818 5.6952 14.818C6.07894 14.818 6.3904 14.5066 6.3904 14.1228V4.39034H27.2458V13.1228C27.2458 13.5066 27.5573 13.818 27.941 13.818C28.3247 13.818 28.6362 13.5066 28.6362 13.1228V3.69514C28.6361 3.3114 28.3247 3 27.9409 3Z" fill="white"/>
<path d="M20.5133 17H11.6952C11.3115 17 11 17.3115 11 17.6952C11 18.0789 11.3115 18.3904 11.6952 18.3904H20.5132C20.897 18.3904 21.2084 18.0789 21.2084 17.6952C21.2084 17.3115 20.897 17 20.5133 17Z" fill="white"/>
</g>
</svg>
