<svg width="34" height="34" viewBox="0 0 34 34" fill="none" xmlns="http://www.w3.org/2000/svg">
<g opacity="0.5">
<path fill-rule="evenodd" clip-rule="evenodd" d="M5.66669 1H27C29.5733 1 31.6667 3.09331 31.6666 5.66669V19.0627C31.6666 19.3601 31.4706 19.6201 31.1853 19.7027C30.9 19.7841 30.5947 19.6694 30.436 19.4174C28.9574 17.0694 26.4267 15.6667 23.6667 15.6667C19.2547 15.6667 15.6667 19.2547 15.6667 23.6667C15.6667 26.4268 17.0694 28.9574 19.4174 30.4361C19.6694 30.5947 19.7854 30.9001 19.7027 31.1854C19.62 31.4707 19.36 31.6667 19.0627 31.6667H5.66669C3.09331 31.6667 1 29.5733 1 27V5.66669C1 3.09331 3.09331 1 5.66669 1ZM23.6666 14.3333C26.216 14.3333 28.5973 15.3573 30.3333 17.1413V5.66669C30.3333 3.82938 28.8373 2.33337 27 2.33337H5.66669C3.82938 2.33337 2.33337 3.82938 2.33337 5.66669V27C2.33337 28.8373 3.82938 30.3333 5.66669 30.3333H17.1413C15.3573 28.5973 14.3333 26.2159 14.3333 23.6666C14.3333 18.52 18.5199 14.3333 23.6666 14.3333Z" fill="white"/>
<path d="M31.6666 5.66669L31.6166 5.66669V5.66669H31.6666ZM31.1853 19.7027L31.199 19.7508L31.1992 19.7508L31.1853 19.7027ZM30.436 19.4174L30.4783 19.3908H30.4783L30.436 19.4174ZM19.4174 30.4361L19.3907 30.4784L19.3907 30.4784L19.4174 30.4361ZM30.3333 17.1413L30.2975 17.1762L30.3833 17.2644V17.1413H30.3333ZM17.1413 30.3333V30.3833H17.2644L17.1762 30.2975L17.1413 30.3333ZM27 0.95H5.66669V1.05H27V0.95ZM31.7166 5.66669C31.7167 3.0657 29.6009 0.95 27 0.95V1.05C29.5457 1.05 31.6167 3.12093 31.6166 5.66669L31.7166 5.66669ZM31.7166 19.0627V5.66669H31.6166V19.0627H31.7166ZM31.1992 19.7508C31.5059 19.6619 31.7166 19.3824 31.7166 19.0627H31.6166C31.6166 19.3377 31.4354 19.5782 31.1714 19.6547L31.1992 19.7508ZM30.3937 19.4441C30.5643 19.7151 30.8926 19.8382 31.199 19.7508L31.1716 19.6547C30.9074 19.73 30.625 19.6238 30.4783 19.3908L30.3937 19.4441ZM23.6667 15.7168C26.4094 15.7168 28.9242 17.1105 30.3937 19.4441L30.4783 19.3908C28.9906 17.0284 26.444 15.6167 23.6667 15.6167V15.7168ZM15.7167 23.6667C15.7167 19.2824 19.2823 15.7168 23.6667 15.7168V15.6167C19.2271 15.6167 15.6167 19.2271 15.6167 23.6667H15.7167ZM19.444 30.3938C17.1105 28.9242 15.7167 26.4094 15.7167 23.6667H15.6167C15.6167 26.4441 17.0283 28.9906 19.3907 30.4784L19.444 30.3938ZM19.7507 31.1993C19.8396 30.8926 19.7149 30.5642 19.444 30.3937L19.3907 30.4784C19.6239 30.6251 19.7311 30.9076 19.6547 31.1715L19.7507 31.1993ZM19.0627 31.7167C19.3823 31.7167 19.6618 31.5059 19.7507 31.1993L19.6547 31.1715C19.5782 31.4355 19.3377 31.6167 19.0627 31.6167V31.7167ZM5.66669 31.7167H19.0627V31.6167H5.66669V31.7167ZM0.95 27C0.95 29.6009 3.0657 31.7167 5.66669 31.7167V31.6167C3.12093 31.6167 1.05 29.5457 1.05 27H0.95ZM0.95 5.66669V27H1.05V5.66669H0.95ZM5.66669 0.95C3.0657 0.95 0.95 3.0657 0.95 5.66669H1.05C1.05 3.12093 3.12093 1.05 5.66669 1.05V0.95ZM30.3691 17.1064C28.6238 15.3128 26.2296 14.2833 23.6666 14.2833V14.3833C26.2024 14.3833 28.5708 15.4018 30.2975 17.1762L30.3691 17.1064ZM30.2833 5.66669V17.1413H30.3833V5.66669H30.2833ZM27 2.38337C28.8097 2.38337 30.2833 3.85699 30.2833 5.66669H30.3833C30.3833 3.80176 28.8649 2.28338 27 2.28338V2.38337ZM5.66669 2.38337H27V2.28338H5.66669V2.38337ZM2.38337 5.66669C2.38337 3.85699 3.85699 2.38337 5.66669 2.38337V2.28338C3.80176 2.28338 2.28338 3.80176 2.28338 5.66669H2.38337ZM2.38337 27V5.66669H2.28338V27H2.38337ZM5.66669 30.2833C3.85699 30.2833 2.38337 28.8097 2.38337 27H2.28338C2.28338 28.8649 3.80176 30.3833 5.66669 30.3833V30.2833ZM17.1413 30.2833H5.66669V30.3833H17.1413V30.2833ZM14.2833 23.6666C14.2833 26.2295 15.3128 28.6238 17.1064 30.3691L17.1762 30.2975C15.4018 28.5708 14.3833 26.2024 14.3833 23.6666H14.2833ZM23.6666 14.2833C18.4923 14.2833 14.2833 18.4924 14.2833 23.6666H14.3833C14.3833 18.5476 18.5476 14.3833 23.6666 14.3833V14.2833Z" fill="white"/>
<path fill-rule="evenodd" clip-rule="evenodd" d="M14.3334 23.6666C14.3334 18.52 18.52 14.3333 23.6667 14.3333C28.8133 14.3333 33 18.5201 33 23.6667C33 28.8133 28.8134 33 23.6667 33C18.52 33 14.3334 28.8132 14.3334 23.6666ZM15.6667 23.6667C15.6667 28.0787 19.2547 31.6667 23.6667 31.6667C28.0787 31.6667 31.6667 28.0787 31.6667 23.6667C31.6667 19.2547 28.0787 15.6667 23.6667 15.6667C19.2547 15.6667 15.6667 19.2547 15.6667 23.6667Z" fill="white"/>
<path d="M23.6667 14.2833C18.4924 14.2833 14.2834 18.4924 14.2834 23.6666H14.3834C14.3834 18.5476 18.5476 14.3833 23.6667 14.3833V14.2833ZM33.05 23.6667C33.05 18.4924 28.8409 14.2833 23.6667 14.2833V14.3833C28.7857 14.3833 32.95 18.5477 32.95 23.6667H33.05ZM23.6667 33.05C28.841 33.05 33.05 28.8409 33.05 23.6667H32.95C32.95 28.7857 28.7858 32.95 23.6667 32.95V33.05ZM14.2834 23.6666C14.2834 28.8409 18.4924 33.05 23.6667 33.05V32.95C18.5476 32.95 14.3834 28.7856 14.3834 23.6666H14.2834ZM23.6667 31.6167C19.2823 31.6167 15.7167 28.0511 15.7167 23.6667H15.6167C15.6167 28.1063 19.2271 31.7167 23.6667 31.7167V31.6167ZM31.6167 23.6667C31.6167 28.0511 28.0511 31.6167 23.6667 31.6167V31.7167C28.1063 31.7167 31.7167 28.1063 31.7167 23.6667H31.6167ZM23.6667 15.7167C28.0511 15.7167 31.6167 19.2823 31.6167 23.6667H31.7167C31.7167 19.2271 28.1063 15.6167 23.6667 15.6167V15.7167ZM15.7167 23.6667C15.7167 19.2823 19.2823 15.7167 23.6667 15.7167V15.6167C19.2271 15.6167 15.6167 19.2271 15.6167 23.6667H15.7167Z" fill="white"/>
<path d="M13.6667 9H5.66669C5.29869 9 5 9.29869 5 9.66669C5 10.0347 5.29869 10.3334 5.66669 10.3334H13.6667C14.0347 10.3334 14.3334 10.0347 14.3334 9.66669C14.3334 9.29869 14.0347 9 13.6667 9Z" fill="white" stroke="white" stroke-width="0.1"/>
<path d="M9.66669 5C9.29869 5 9 5.29869 9 5.66669V13.6667C9 14.0347 9.29869 14.3334 9.66669 14.3334C10.0347 14.3334 10.3334 14.0347 10.3334 13.6667V5.66669C10.3333 5.29869 10.0347 5 9.66669 5Z" fill="white" stroke="white" stroke-width="0.1"/>
<path d="M27 9H20.3333C19.9653 9 19.6666 9.29869 19.6666 9.66669C19.6666 10.0347 19.9653 10.3334 20.3333 10.3334H27C27.368 10.3334 27.6667 10.0347 27.6667 9.66669C27.6667 9.29869 27.368 9 27 9Z" fill="white" stroke="white" stroke-width="0.1"/>
<path d="M12.804 26.5293L6.13732 19.8627C5.87732 19.6027 5.45463 19.6027 5.19463 19.8627C4.93463 20.1227 4.93463 20.5454 5.19463 20.8054L11.8613 27.4721C11.992 27.6014 12.1626 27.6668 12.3333 27.6668C12.504 27.6668 12.6746 27.6014 12.804 27.4721C13.064 27.212 13.064 26.7893 12.804 26.5293Z" fill="white" stroke="white" stroke-width="0.1"/>
<path d="M12.8039 19.8627C12.5439 19.6027 12.1213 19.6027 11.8613 19.8627L5.19463 26.5293C4.93463 26.7893 4.93463 27.212 5.19463 27.472C5.32532 27.6013 5.49595 27.6667 5.66663 27.6667C5.83732 27.6667 6.00795 27.6014 6.13732 27.472L12.804 20.8053C13.0639 20.5453 13.0639 20.1227 12.8039 19.8627Z" fill="white" stroke="white" stroke-width="0.1"/>
<path d="M27 21H20.3333C19.9653 21 19.6666 21.2987 19.6666 21.6667C19.6666 22.0347 19.9653 22.3334 20.3333 22.3334H27C27.368 22.3334 27.6667 22.0347 27.6667 21.6667C27.6667 21.2987 27.368 21 27 21Z" fill="white" stroke="white" stroke-width="0.1"/>
<path d="M27 25H20.3333C19.9653 25 19.6666 25.2987 19.6666 25.6667C19.6666 26.0347 19.9653 26.3334 20.3333 26.3334H27C27.368 26.3334 27.6667 26.0347 27.6667 25.6667C27.6667 25.2987 27.368 25 27 25Z" fill="white" stroke="white" stroke-width="0.1"/>
</g>
</svg>
