<svg width="34" height="34" viewBox="0 0 34 34" fill="none" xmlns="http://www.w3.org/2000/svg">
<mask id="path-1-outside-1" maskUnits="userSpaceOnUse" x="2" y="6" width="6" height="6" fill="black">
<rect fill="white" x="2" y="6" width="6" height="6"/>
<path fill-rule="evenodd" clip-rule="evenodd" d="M7 11H3V7H7V11ZM5.99997 8.00003H3.99992V10.0001H5.99997V8.00003Z"/>
</mask>
<path fill-rule="evenodd" clip-rule="evenodd" d="M7 11H3V7H7V11ZM5.99997 8.00003H3.99992V10.0001H5.99997V8.00003Z" fill="white" fill-opacity="0.5"/>
<path d="M3 11H2.9V11.1H3V11ZM7 11V11.1H7.1V11H7ZM3 7V6.9H2.9V7H3ZM7 7H7.1V6.9H7V7ZM3.99992 8.00003V7.90003H3.89992V8.00003H3.99992ZM5.99997 8.00003H6.09997V7.90003H5.99997V8.00003ZM3.99992 10.0001H3.89992V10.1001H3.99992V10.0001ZM5.99997 10.0001V10.1001H6.09997V10.0001H5.99997ZM3 11.1H7V10.9H3V11.1ZM2.9 7V11H3.1V7H2.9ZM7 6.9H3V7.1H7V6.9ZM7.1 11V7H6.9V11H7.1ZM3.99992 8.10003H5.99997V7.90003H3.99992V8.10003ZM4.09992 10.0001V8.00003H3.89992V10.0001H4.09992ZM5.99997 9.90008H3.99992V10.1001H5.99997V9.90008ZM5.89997 8.00003V10.0001H6.09997V8.00003H5.89997Z" fill="white" mask="url(#path-1-outside-1)"/>
<mask id="path-3-outside-2" maskUnits="userSpaceOnUse" x="7" y="6" width="6" height="6" fill="black">
<rect fill="white" x="7" y="6" width="6" height="6"/>
<path fill-rule="evenodd" clip-rule="evenodd" d="M12 11H8V7H12V11ZM11 8.00003H8.99992V10.0001H11V8.00003Z"/>
</mask>
<path fill-rule="evenodd" clip-rule="evenodd" d="M12 11H8V7H12V11ZM11 8.00003H8.99992V10.0001H11V8.00003Z" fill="white" fill-opacity="0.5"/>
<path d="M8 11H7.9V11.1H8V11ZM12 11V11.1H12.1V11H12ZM8 7V6.9H7.9V7H8ZM12 7H12.1V6.9H12V7ZM8.99992 8.00003V7.90003H8.89992V8.00003H8.99992ZM11 8.00003H11.1V7.90003H11V8.00003ZM8.99992 10.0001H8.89992V10.1001H8.99992V10.0001ZM11 10.0001V10.1001H11.1V10.0001H11ZM8 11.1H12V10.9H8V11.1ZM7.9 7V11H8.1V7H7.9ZM12 6.9H8V7.1H12V6.9ZM12.1 11V7H11.9V11H12.1ZM8.99992 8.10003H11V7.90003H8.99992V8.10003ZM9.09992 10.0001V8.00003H8.89992V10.0001H9.09992ZM11 9.90008H8.99992V10.1001H11V9.90008ZM10.9 8.00003V10.0001H11.1V8.00003H10.9Z" fill="white" mask="url(#path-3-outside-2)"/>
<mask id="path-5-outside-3" maskUnits="userSpaceOnUse" x="12" y="6" width="6" height="6" fill="black">
<rect fill="white" x="12" y="6" width="6" height="6"/>
<path fill-rule="evenodd" clip-rule="evenodd" d="M13 7H17V11H13V7ZM16 9.99997H16.0001V8.00003H14V9.99997H16Z"/>
</mask>
<path fill-rule="evenodd" clip-rule="evenodd" d="M13 7H17V11H13V7ZM16 9.99997H16.0001V8.00003H14V9.99997H16Z" fill="white" fill-opacity="0.5"/>
<path d="M17 7H17.1V6.9H17V7ZM13 7V6.9H12.9V7H13ZM17 11V11.1H17.1V11H17ZM13 11H12.9V11.1H13V11ZM16.0001 9.99997V10.1H16.1001V9.99997H16.0001ZM16.0001 8.00003H16.1001V7.90003H16.0001V8.00003ZM14 8.00003V7.90003H13.9V8.00003H14ZM14 9.99997H13.9V10.1H14V9.99997ZM17 6.9H13V7.1H17V6.9ZM17.1 11V7H16.9V11H17.1ZM13 11.1H17V10.9H13V11.1ZM12.9 7V11H13.1V7H12.9ZM16.0001 9.89997H16V10.1H16.0001V9.89997ZM15.9001 8.00003V9.99997H16.1001V8.00003H15.9001ZM14 8.10003H16.0001V7.90003H14V8.10003ZM14.1 9.99997V8.00003H13.9V9.99997H14.1ZM16 9.89997H14V10.1H16V9.89997Z" fill="white" mask="url(#path-5-outside-3)"/>
<mask id="path-7-outside-4" maskUnits="userSpaceOnUse" x="18" y="6" width="6" height="6" fill="black">
<rect fill="white" x="18" y="6" width="6" height="6"/>
<path fill-rule="evenodd" clip-rule="evenodd" d="M19 7H23V11H19V7ZM19.9999 9.99997H22V8.00003H19.9999V9.99997Z"/>
</mask>
<path fill-rule="evenodd" clip-rule="evenodd" d="M19 7H23V11H19V7ZM19.9999 9.99997H22V8.00003H19.9999V9.99997Z" fill="white" fill-opacity="0.5"/>
<path d="M23 7H23.1V6.9H23V7ZM19 7V6.9H18.9V7H19ZM23 11V11.1H23.1V11H23ZM19 11H18.9V11.1H19V11ZM22 9.99997V10.1H22.1V9.99997H22ZM19.9999 9.99997H19.8999V10.1H19.9999V9.99997ZM22 8.00003H22.1V7.90003H22V8.00003ZM19.9999 8.00003V7.90003H19.8999V8.00003H19.9999ZM23 6.9H19V7.1H23V6.9ZM23.1 11V7H22.9V11H23.1ZM19 11.1H23V10.9H19V11.1ZM18.9 7V11H19.1V7H18.9ZM22 9.89997H19.9999V10.1H22V9.89997ZM21.9 8.00003V9.99997H22.1V8.00003H21.9ZM19.9999 8.10003H22V7.90003H19.9999V8.10003ZM20.0999 9.99997V8.00003H19.8999V9.99997H20.0999Z" fill="white" mask="url(#path-7-outside-4)"/>
<mask id="path-9-outside-5" maskUnits="userSpaceOnUse" x="2" y="11" width="6" height="6" fill="black">
<rect fill="white" x="2" y="11" width="6" height="6"/>
<path fill-rule="evenodd" clip-rule="evenodd" d="M7 16H3V12H7V16ZM5.99997 13H3.99992V15.0001H5.99997V13Z"/>
</mask>
<path fill-rule="evenodd" clip-rule="evenodd" d="M7 16H3V12H7V16ZM5.99997 13H3.99992V15.0001H5.99997V13Z" fill="white" fill-opacity="0.5"/>
<path d="M3 16H2.9V16.1H3V16ZM7 16V16.1H7.1V16H7ZM3 12V11.9H2.9V12H3ZM7 12H7.1V11.9H7V12ZM3.99992 13V12.9H3.89992V13H3.99992ZM5.99997 13H6.09997V12.9H5.99997V13ZM3.99992 15.0001H3.89992V15.1001H3.99992V15.0001ZM5.99997 15.0001V15.1001H6.09997V15.0001H5.99997ZM3 16.1H7V15.9H3V16.1ZM2.9 12V16H3.1V12H2.9ZM7 11.9H3V12.1H7V11.9ZM7.1 16V12H6.9V16H7.1ZM3.99992 13.1H5.99997V12.9H3.99992V13.1ZM4.09992 15.0001V13H3.89992V15.0001H4.09992ZM5.99997 14.9001H3.99992V15.1001H5.99997V14.9001ZM5.89997 13V15.0001H6.09997V13H5.89997Z" fill="white" mask="url(#path-9-outside-5)"/>
<mask id="path-11-outside-6" maskUnits="userSpaceOnUse" x="2" y="16" width="6" height="6" fill="black">
<rect fill="white" x="2" y="16" width="6" height="6"/>
<path fill-rule="evenodd" clip-rule="evenodd" d="M7 21H3V17H7V21ZM5.99997 18H3.99992V20.0001H5.99997V18Z"/>
</mask>
<path fill-rule="evenodd" clip-rule="evenodd" d="M7 21H3V17H7V21ZM5.99997 18H3.99992V20.0001H5.99997V18Z" fill="white" fill-opacity="0.5"/>
<path d="M3 21H2.9V21.1H3V21ZM7 21V21.1H7.1V21H7ZM3 17V16.9H2.9V17H3ZM7 17H7.1V16.9H7V17ZM3.99992 18V17.9H3.89992V18H3.99992ZM5.99997 18H6.09997V17.9H5.99997V18ZM3.99992 20.0001H3.89992V20.1001H3.99992V20.0001ZM5.99997 20.0001V20.1001H6.09997V20.0001H5.99997ZM3 21.1H7V20.9H3V21.1ZM2.9 17V21H3.1V17H2.9ZM7 16.9H3V17.1H7V16.9ZM7.1 21V17H6.9V21H7.1ZM3.99992 18.1H5.99997V17.9H3.99992V18.1ZM4.09992 20.0001V18H3.89992V20.0001H4.09992ZM5.99997 19.9001H3.99992V20.1001H5.99997V19.9001ZM5.89997 18V20.0001H6.09997V18H5.89997Z" fill="white" mask="url(#path-11-outside-6)"/>
<mask id="path-13-outside-7" maskUnits="userSpaceOnUse" x="7" y="16" width="6" height="6" fill="black">
<rect fill="white" x="7" y="16" width="6" height="6"/>
<path fill-rule="evenodd" clip-rule="evenodd" d="M12 21H8V17H12V21ZM11 18H8.99992V20.0001H11V18Z"/>
</mask>
<path fill-rule="evenodd" clip-rule="evenodd" d="M12 21H8V17H12V21ZM11 18H8.99992V20.0001H11V18Z" fill="white" fill-opacity="0.5"/>
<path d="M8 21H7.9V21.1H8V21ZM12 21V21.1H12.1V21H12ZM8 17V16.9H7.9V17H8ZM12 17H12.1V16.9H12V17ZM8.99992 18V17.9H8.89992V18H8.99992ZM11 18H11.1V17.9H11V18ZM8.99992 20.0001H8.89992V20.1001H8.99992V20.0001ZM11 20.0001V20.1001H11.1V20.0001H11ZM8 21.1H12V20.9H8V21.1ZM7.9 17V21H8.1V17H7.9ZM12 16.9H8V17.1H12V16.9ZM12.1 21V17H11.9V21H12.1ZM8.99992 18.1H11V17.9H8.99992V18.1ZM9.09992 20.0001V18H8.89992V20.0001H9.09992ZM11 19.9001H8.99992V20.1001H11V19.9001ZM10.9 18V20.0001H11.1V18H10.9Z" fill="white" mask="url(#path-13-outside-7)"/>
<path d="M8.72748 16.0354L8.76284 16.0707L8.79819 16.0354L9.99994 14.8336L11.2017 16.0354L11.237 16.0707L11.2724 16.0354L12.0354 15.2725L12.0707 15.2372L12.0354 15.2018L10.8336 14.0001L12.0354 12.7983L12.0707 12.763L12.0354 12.7276L11.2724 11.9646L11.237 11.9293L11.2017 11.9646L9.99994 13.1664L8.79819 11.9646L8.76284 11.9293L8.72748 11.9646L7.96464 12.7276L7.92929 12.763L7.96464 12.7983L9.16639 14.0001L7.96464 15.2018L7.92929 15.2372L7.96464 15.2725L8.72748 16.0354Z" fill="white" fill-opacity="0.5" stroke="white" stroke-width="0.1"/>
<mask id="path-16-outside-8" maskUnits="userSpaceOnUse" x="0" y="0" width="34" height="34" fill="black">
<rect fill="white" width="34" height="34"/>
<path fill-rule="evenodd" clip-rule="evenodd" d="M24.7418 11.8387H32.9998H33V21.129H30.9355V23.9135C30.9355 25.1569 30.3614 26.3172 29.387 27.0707V33H28.3548V30.9354H23.1935V33H22.1613V27.0542L19.6673 25.0285L18.444 23.1936H1V3.06456H4.09671V1H7.19352V3.06456H18.5484V1H21.6451V3.06456H24.7418V11.8387ZM20.6128 2.03228H19.5806V4.61298H20.6128V2.03228ZM5.12898 2.03228H6.16125V4.61298H5.12898V2.03228ZM2.03227 4.09673V22.1613H17.7561L17.0681 21.129H13.387V17H16.4838V15.9677H13.387V11.8387H16.4838H17.516H23.7096V4.09673H21.645V5.64515H18.5483V4.09673H7.19352V5.64515H4.09682V4.09673H2.03227ZM16.4838 14.9354H14.4193V12.8709H16.4839V14.9354H16.4838ZM16.4839 20.0967V18.0322H14.4193V20.0967H16.4839ZM29.9031 23.9136C29.9031 24.9061 29.4101 25.8268 28.5843 26.3771L28.3547 26.5304V29.9033H23.1934V26.5588L20.4817 24.3895L17.8014 20.3683C17.6146 20.0881 17.516 19.7629 17.516 19.4265C17.516 18.9423 17.9098 18.5485 18.394 18.5485C18.6629 18.5485 18.9127 18.6683 19.0799 18.8783L20.8812 21.1292H29.9031V23.9136ZM21.3766 20.0967H31.9675V12.871H17.516V15.9677V17V17.7303C17.7793 17.5931 18.0776 17.5161 18.394 17.5161C18.9777 17.5161 19.5217 17.7772 19.8856 18.233L21.3766 20.0967Z"/>
</mask>
<path fill-rule="evenodd" clip-rule="evenodd" d="M24.7418 11.8387H32.9998H33V21.129H30.9355V23.9135C30.9355 25.1569 30.3614 26.3172 29.387 27.0707V33H28.3548V30.9354H23.1935V33H22.1613V27.0542L19.6673 25.0285L18.444 23.1936H1V3.06456H4.09671V1H7.19352V3.06456H18.5484V1H21.6451V3.06456H24.7418V11.8387ZM20.6128 2.03228H19.5806V4.61298H20.6128V2.03228ZM5.12898 2.03228H6.16125V4.61298H5.12898V2.03228ZM2.03227 4.09673V22.1613H17.7561L17.0681 21.129H13.387V17H16.4838V15.9677H13.387V11.8387H16.4838H17.516H23.7096V4.09673H21.645V5.64515H18.5483V4.09673H7.19352V5.64515H4.09682V4.09673H2.03227ZM16.4838 14.9354H14.4193V12.8709H16.4839V14.9354H16.4838ZM16.4839 20.0967V18.0322H14.4193V20.0967H16.4839ZM29.9031 23.9136C29.9031 24.9061 29.4101 25.8268 28.5843 26.3771L28.3547 26.5304V29.9033H23.1934V26.5588L20.4817 24.3895L17.8014 20.3683C17.6146 20.0881 17.516 19.7629 17.516 19.4265C17.516 18.9423 17.9098 18.5485 18.394 18.5485C18.6629 18.5485 18.9127 18.6683 19.0799 18.8783L20.8812 21.1292H29.9031V23.9136ZM21.3766 20.0967H31.9675V12.871H17.516V15.9677V17V17.7303C17.7793 17.5931 18.0776 17.5161 18.394 17.5161C18.9777 17.5161 19.5217 17.7772 19.8856 18.233L21.3766 20.0967Z" fill="white" fill-opacity="0.5"/>
<path d="M24.7418 11.8387H24.6418V11.9387H24.7418V11.8387ZM33 11.8387H33.1V11.7387H33V11.8387ZM33 21.129V21.229H33.1V21.129H33ZM30.9355 21.129V21.029H30.8355V21.129H30.9355ZM29.387 27.0707L29.3259 26.9916L29.287 27.0216V27.0707H29.387ZM29.387 33V33.1H29.487V33H29.387ZM28.3548 33H28.2548V33.1H28.3548V33ZM28.3548 30.9354H28.4548V30.8354H28.3548V30.9354ZM23.1935 30.9354V30.8354H23.0935V30.9354H23.1935ZM23.1935 33V33.1H23.2935V33H23.1935ZM22.1613 33H22.0613V33.1H22.1613V33ZM22.1613 27.0542H22.2613V27.0066L22.2243 26.9766L22.1613 27.0542ZM19.6673 25.0285L19.5841 25.0839L19.5925 25.0965L19.6042 25.1061L19.6673 25.0285ZM18.444 23.1936L18.5272 23.1381L18.4976 23.0936H18.444V23.1936ZM1 23.1936H0.9V23.2936H1V23.1936ZM1 3.06456V2.96456H0.9V3.06456H1ZM4.09671 3.06456V3.16456H4.19671V3.06456H4.09671ZM4.09671 1V0.9H3.99671V1H4.09671ZM7.19352 1H7.29352V0.9H7.19352V1ZM7.19352 3.06456H7.09352V3.16456H7.19352V3.06456ZM18.5484 3.06456V3.16456H18.6484V3.06456H18.5484ZM18.5484 1V0.9H18.4484V1H18.5484ZM21.6451 1H21.7451V0.9H21.6451V1ZM21.6451 3.06456H21.5451V3.16456H21.6451V3.06456ZM24.7418 3.06456H24.8418V2.96456H24.7418V3.06456ZM19.5806 2.03228V1.93228H19.4806V2.03228H19.5806ZM20.6128 2.03228H20.7128V1.93228H20.6128V2.03228ZM19.5806 4.61298H19.4806V4.71298H19.5806V4.61298ZM20.6128 4.61298V4.71298H20.7128V4.61298H20.6128ZM6.16125 2.03228H6.26125V1.93228H6.16125V2.03228ZM5.12898 2.03228V1.93228H5.02898V2.03228H5.12898ZM6.16125 4.61298V4.71298H6.26125V4.61298H6.16125ZM5.12898 4.61298H5.02898V4.71298H5.12898V4.61298ZM2.03227 22.1613H1.93227V22.2613H2.03227V22.1613ZM2.03227 4.09673V3.99673H1.93227V4.09673H2.03227ZM17.7561 22.1613V22.2613H17.9429L17.8393 22.1058L17.7561 22.1613ZM17.0681 21.129L17.1513 21.0735L17.1216 21.029H17.0681V21.129ZM13.387 21.129H13.287V21.229H13.387V21.129ZM13.387 17V16.9H13.287V17H13.387ZM16.4838 17V17.1H16.5838V17H16.4838ZM16.4838 15.9677H16.5838V15.8677H16.4838V15.9677ZM13.387 15.9677H13.287V16.0677H13.387V15.9677ZM13.387 11.8387V11.7387H13.287V11.8387H13.387ZM23.7096 11.8387V11.9387H23.8096V11.8387H23.7096ZM23.7096 4.09673H23.8096V3.99673H23.7096V4.09673ZM21.645 4.09673V3.99673H21.545V4.09673H21.645ZM21.645 5.64515V5.74515H21.745V5.64515H21.645ZM18.5483 5.64515H18.4483V5.74515H18.5483V5.64515ZM18.5483 4.09673H18.6483V3.99673H18.5483V4.09673ZM7.19352 4.09673V3.99673H7.09352V4.09673H7.19352ZM7.19352 5.64515V5.74515H7.29352V5.64515H7.19352ZM4.09682 5.64515H3.99682V5.74515H4.09682V5.64515ZM4.09682 4.09673H4.19682V3.99673H4.09682V4.09673ZM14.4193 14.9354H14.3193V15.0354H14.4193V14.9354ZM14.4193 12.8709V12.7709H14.3193V12.8709H14.4193ZM16.4839 12.8709H16.5839V12.7709H16.4839V12.8709ZM16.4839 14.9354V15.0354H16.5839V14.9354H16.4839ZM16.4839 18.0322H16.5839V17.9322H16.4839V18.0322ZM16.4839 20.0967V20.1967H16.5839V20.0967H16.4839ZM14.4193 18.0322V17.9322H14.3193V18.0322H14.4193ZM14.4193 20.0967H14.3193V20.1967H14.4193V20.0967ZM28.5843 26.3771L28.5289 26.2939L28.5288 26.2939L28.5843 26.3771ZM28.3547 26.5304L28.2992 26.4472L28.2547 26.4769V26.5304H28.3547ZM28.3547 29.9033V30.0033H28.4547V29.9033H28.3547ZM23.1934 29.9033H23.0934V30.0033H23.1934V29.9033ZM23.1934 26.5588H23.2934V26.5107L23.2559 26.4807L23.1934 26.5588ZM20.4817 24.3895L20.3985 24.445L20.4071 24.4579L20.4192 24.4676L20.4817 24.3895ZM17.8014 20.3683L17.8846 20.3129L17.8846 20.3129L17.8014 20.3683ZM19.0799 18.8783L19.0017 18.9406L19.0019 18.9408L19.0799 18.8783ZM20.8812 21.1292L20.8031 21.1917L20.8332 21.2292H20.8812V21.1292ZM29.9031 21.1292H30.0031V21.0292H29.9031V21.1292ZM31.9675 20.0967V20.1967H32.0675V20.0967H31.9675ZM21.3766 20.0967L21.2986 20.1592L21.3286 20.1967H21.3766V20.0967ZM31.9675 12.871H32.0675V12.771H31.9675V12.871ZM17.516 12.871V12.771H17.416V12.871H17.516ZM17.516 17.7303H17.416V17.8952L17.5622 17.819L17.516 17.7303ZM19.8856 18.233L19.8074 18.2954L19.8075 18.2955L19.8856 18.233ZM32.9998 11.7387H24.7418V11.9387H32.9998V11.7387ZM33 11.7387H32.9998V11.9387H33V11.7387ZM33.1 21.129V11.8387H32.9V21.129H33.1ZM30.9355 21.229H33V21.029H30.9355V21.229ZM31.0355 23.9135V21.129H30.8355V23.9135H31.0355ZM29.4482 27.1498C30.447 26.3774 31.0355 25.1879 31.0355 23.9135H30.8355C30.8355 25.1258 30.2759 26.257 29.3259 26.9916L29.4482 27.1498ZM29.487 33V27.0707H29.287V33H29.487ZM28.3548 33.1H29.387V32.9H28.3548V33.1ZM28.2548 30.9354V33H28.4548V30.9354H28.2548ZM23.1935 31.0354H28.3548V30.8354H23.1935V31.0354ZM23.2935 33V30.9354H23.0935V33H23.2935ZM22.1613 33.1H23.1935V32.9H22.1613V33.1ZM22.0613 27.0542V33H22.2613V27.0542H22.0613ZM19.6042 25.1061L22.0982 27.1318L22.2243 26.9766L19.7303 24.9508L19.6042 25.1061ZM18.3608 23.249L19.5841 25.0839L19.7505 24.973L18.5272 23.1381L18.3608 23.249ZM1 23.2936H18.444V23.0936H1V23.2936ZM0.9 3.06456V23.1936H1.1V3.06456H0.9ZM4.09671 2.96456H1V3.16456H4.09671V2.96456ZM3.99671 1V3.06456H4.19671V1H3.99671ZM7.19352 0.9H4.09671V1.1H7.19352V0.9ZM7.29352 3.06456V1H7.09352V3.06456H7.29352ZM18.5484 2.96456H7.19352V3.16456H18.5484V2.96456ZM18.4484 1V3.06456H18.6484V1H18.4484ZM21.6451 0.9H18.5484V1.1H21.6451V0.9ZM21.7451 3.06456V1H21.5451V3.06456H21.7451ZM24.7418 2.96456H21.6451V3.16456H24.7418V2.96456ZM24.8418 11.8387V3.06456H24.6418V11.8387H24.8418ZM19.5806 2.13228H20.6128V1.93228H19.5806V2.13228ZM19.6806 4.61298V2.03228H19.4806V4.61298H19.6806ZM20.6128 4.51298H19.5806V4.71298H20.6128V4.51298ZM20.5128 2.03228V4.61298H20.7128V2.03228H20.5128ZM6.16125 1.93228H5.12898V2.13228H6.16125V1.93228ZM6.26125 4.61298V2.03228H6.06125V4.61298H6.26125ZM5.12898 4.71298H6.16125V4.51298H5.12898V4.71298ZM5.02898 2.03228V4.61298H5.22898V2.03228H5.02898ZM2.13227 22.1613V4.09673H1.93227V22.1613H2.13227ZM17.7561 22.0613H2.03227V22.2613H17.7561V22.0613ZM16.9849 21.1845L17.6729 22.2167L17.8393 22.1058L17.1513 21.0735L16.9849 21.1845ZM13.387 21.229H17.0681V21.029H13.387V21.229ZM13.287 17V21.129H13.487V17H13.287ZM16.4838 16.9H13.387V17.1H16.4838V16.9ZM16.3838 15.9677V17H16.5838V15.9677H16.3838ZM13.387 16.0677H16.4838V15.8677H13.387V16.0677ZM13.287 11.8387V15.9677H13.487V11.8387H13.287ZM16.4838 11.7387H13.387V11.9387H16.4838V11.7387ZM17.516 11.7387H16.4838V11.9387H17.516V11.7387ZM23.7096 11.7387H17.516V11.9387H23.7096V11.7387ZM23.6096 4.09673V11.8387H23.8096V4.09673H23.6096ZM21.645 4.19673H23.7096V3.99673H21.645V4.19673ZM21.745 5.64515V4.09673H21.545V5.64515H21.745ZM18.5483 5.74515H21.645V5.54515H18.5483V5.74515ZM18.4483 4.09673V5.64515H18.6483V4.09673H18.4483ZM7.19352 4.19673H18.5483V3.99673H7.19352V4.19673ZM7.29352 5.64515V4.09673H7.09352V5.64515H7.29352ZM4.09682 5.74515H7.19352V5.54515H4.09682V5.74515ZM3.99682 4.09673V5.64515H4.19682V4.09673H3.99682ZM2.03227 4.19673H4.09682V3.99673H2.03227V4.19673ZM14.4193 15.0354H16.4838V14.8354H14.4193V15.0354ZM14.3193 12.8709V14.9354H14.5193V12.8709H14.3193ZM16.4839 12.7709H14.4193V12.9709H16.4839V12.7709ZM16.5839 14.9354V12.8709H16.3839V14.9354H16.5839ZM16.4838 15.0354H16.4839V14.8354H16.4838V15.0354ZM16.3839 18.0322V20.0967H16.5839V18.0322H16.3839ZM14.4193 18.1322H16.4839V17.9322H14.4193V18.1322ZM14.5193 20.0967V18.0322H14.3193V20.0967H14.5193ZM16.4839 19.9967H14.4193V20.1967H16.4839V19.9967ZM28.6398 26.4603C29.4934 25.8915 30.0031 24.9395 30.0031 23.9136H29.8031C29.8031 24.8726 29.3269 25.7622 28.5289 26.2939L28.6398 26.4603ZM28.4102 26.6136L28.6398 26.4603L28.5288 26.2939L28.2992 26.4472L28.4102 26.6136ZM28.4547 29.9033V26.5304H28.2547V29.9033H28.4547ZM23.1934 30.0033H28.3547V29.8033H23.1934V30.0033ZM23.0934 26.5588V29.9033H23.2934V26.5588H23.0934ZM20.4192 24.4676L23.1309 26.6369L23.2559 26.4807L20.5442 24.3114L20.4192 24.4676ZM17.7182 20.4238L20.3985 24.445L20.5649 24.334L17.8846 20.3129L17.7182 20.4238ZM17.416 19.4265C17.416 19.7827 17.5204 20.1271 17.7182 20.4238L17.8846 20.3129C17.7087 20.049 17.616 19.7431 17.616 19.4265H17.416ZM18.394 18.4485C17.8546 18.4485 17.416 18.8871 17.416 19.4265H17.616C17.616 18.9975 17.965 18.6485 18.394 18.6485V18.4485ZM19.1582 18.8161C18.9718 18.582 18.6931 18.4485 18.394 18.4485V18.6485C18.6326 18.6485 18.8536 18.7546 19.0017 18.9406L19.1582 18.8161ZM20.9593 21.0667L19.158 18.8159L19.0019 18.9408L20.8031 21.1917L20.9593 21.0667ZM29.9031 21.0292H20.8812V21.2292H29.9031V21.0292ZM30.0031 23.9136V21.1292H29.8031V23.9136H30.0031ZM31.9675 19.9967H21.3766V20.1967H31.9675V19.9967ZM31.8675 12.871V20.0967H32.0675V12.871H31.8675ZM17.516 12.971H31.9675V12.771H17.516V12.971ZM17.616 15.9677V12.871H17.416V15.9677H17.616ZM17.616 17V15.9677H17.416V17H17.616ZM17.616 17.7303V17H17.416V17.7303H17.616ZM18.394 17.4161C18.0612 17.4161 17.7471 17.4971 17.4698 17.6416L17.5622 17.819C17.8115 17.6891 18.094 17.6161 18.394 17.6161V17.4161ZM19.9637 18.1706C19.5808 17.691 19.008 17.4161 18.394 17.4161V17.6161C18.9474 17.6161 19.4626 17.8635 19.8074 18.2954L19.9637 18.1706ZM21.4547 20.0343L19.9637 18.1705L19.8075 18.2955L21.2986 20.1592L21.4547 20.0343Z" fill="white" mask="url(#path-16-outside-8)"/>
</svg>
