<svg width="34" height="34" viewBox="0 0 34 34" fill="none" xmlns="http://www.w3.org/2000/svg">
<g opacity="0.5">
<path fill-rule="evenodd" clip-rule="evenodd" d="M11 4.5C11 6.42919 9.42919 8 7.5 8C5.57081 8 4 6.42919 4 4.5C4 2.57081 5.57074 1 7.5 1C9.42926 1 11 2.57081 11 4.5ZM9.60001 4.5C9.60001 3.34217 8.65783 2.39999 7.5 2.39999C6.34224 2.39999 5.39999 3.34217 5.39999 4.5C5.39999 5.65783 6.34217 6.60001 7.5 6.60001C8.65783 6.60001 9.60001 5.65783 9.60001 4.5Z" fill="white"/>
<path d="M7.5 8.15C9.51203 8.15 11.15 6.51203 11.15 4.5H10.85C10.85 6.34635 9.34635 7.85 7.5 7.85V8.15ZM3.85 4.5C3.85 6.51203 5.48797 8.15 7.5 8.15V7.85C5.65365 7.85 4.15 6.34635 4.15 4.5H3.85ZM7.5 0.85C5.4879 0.85 3.85 2.48797 3.85 4.5H4.15C4.15 2.65365 5.65359 1.15 7.5 1.15V0.85ZM11.15 4.5C11.15 2.48797 9.5121 0.85 7.5 0.85V1.15C9.34641 1.15 10.85 2.65365 10.85 4.5H11.15ZM7.5 2.54999C8.57499 2.54999 9.45001 3.42501 9.45001 4.5H9.75001C9.75001 3.25933 8.74067 2.24999 7.5 2.24999V2.54999ZM5.54999 4.5C5.54999 3.42502 6.42508 2.54999 7.5 2.54999V2.24999C6.2594 2.24999 5.24999 3.25933 5.24999 4.5H5.54999ZM7.5 6.45001C6.42501 6.45001 5.54999 5.57499 5.54999 4.5H5.24999C5.24999 5.74067 6.25933 6.75001 7.5 6.75001V6.45001ZM9.45001 4.5C9.45001 5.57499 8.57499 6.45001 7.5 6.45001V6.75001C8.74067 6.75001 9.75001 5.74067 9.75001 4.5H9.45001Z" fill="white"/>
</g>
<g opacity="0.5">
<path fill-rule="evenodd" clip-rule="evenodd" d="M8.70267 9C10.4296 9 11.8925 10.392 12.1019 12.2387L12.9846 19.9827C13.0593 20.6307 12.8593 21.2734 12.4366 21.7467C12.0739 22.1547 11.5898 22.3907 11.067 22.42L10.3309 32.3827C10.3069 32.7307 10.0175 33 9.66813 33H4.33401C3.98464 33 3.69529 32.7307 3.66859 32.3827L2.93248 22.42C2.40978 22.3907 1.92702 22.1534 1.56296 21.7467C1.14159 21.2747 0.941555 20.6307 1.01488 19.9827L1.8977 12.2387C2.10842 10.392 3.56995 9 5.2969 9H8.70267ZM10.9551 21.0894C11.2004 21.0894 11.3671 20.944 11.4431 20.8587C11.6125 20.6681 11.6925 20.4041 11.6619 20.1334L10.779 12.3894C10.6443 11.2174 9.75221 10.3334 8.70405 10.3334H5.29822C4.24868 10.3334 3.35655 11.2174 3.22321 12.3894L2.34039 20.1334C2.30976 20.404 2.38978 20.668 2.55911 20.8587C2.63644 20.9441 2.80184 21.0894 3.04719 21.0894H3.55258C3.90194 21.0894 4.1913 21.3587 4.21799 21.7067L4.95279 31.6667H9.04816L9.78427 21.7067C9.80959 21.3587 10.1003 21.0894 10.4497 21.0894H10.9551Z" fill="white"/>
<path d="M12.1019 12.2387L11.9528 12.2556L11.9528 12.2557L12.1019 12.2387ZM12.9846 19.9827L12.8356 19.9997L12.8356 19.9999L12.9846 19.9827ZM12.4366 21.7467L12.3247 21.6468L12.3244 21.647L12.4366 21.7467ZM11.067 22.42L11.0586 22.2702L10.9271 22.2776L10.9174 22.4089L11.067 22.42ZM10.3309 32.3827L10.1813 32.3716L10.1813 32.3724L10.3309 32.3827ZM3.66859 32.3827L3.519 32.3937L3.51903 32.3942L3.66859 32.3827ZM2.93248 22.42L3.08207 22.4089L3.07237 22.2776L2.94088 22.2702L2.93248 22.42ZM1.56296 21.7467L1.45107 21.8466L1.4512 21.8467L1.56296 21.7467ZM1.01488 19.9827L0.865844 19.9657L0.86583 19.9658L1.01488 19.9827ZM1.8977 12.2387L1.74867 12.2217L1.74867 12.2217L1.8977 12.2387ZM11.4431 20.8587L11.5551 20.9585L11.5553 20.9583L11.4431 20.8587ZM11.6619 20.1334L11.8109 20.1165L11.8109 20.1164L11.6619 20.1334ZM10.779 12.3894L10.9281 12.3724L10.9281 12.3722L10.779 12.3894ZM3.22321 12.3894L3.37225 12.4064L3.37225 12.4063L3.22321 12.3894ZM2.34039 20.1334L2.19136 20.1164L2.19134 20.1165L2.34039 20.1334ZM2.55911 20.8587L2.44695 20.9583L2.44794 20.9594L2.55911 20.8587ZM4.21799 21.7067L4.36758 21.6957L4.36755 21.6952L4.21799 21.7067ZM4.95279 31.6667L4.8032 31.6777L4.81345 31.8167H4.95279V31.6667ZM9.04816 31.6667V31.8167H9.18748L9.19775 31.6777L9.04816 31.6667ZM9.78427 21.7067L9.93387 21.7177L9.93388 21.7176L9.78427 21.7067ZM12.2509 12.2218C12.034 10.308 10.5144 8.85 8.70267 8.85V9.15C10.3449 9.15 11.7511 10.476 11.9528 12.2556L12.2509 12.2218ZM13.1337 19.9657L12.2509 12.2217L11.9528 12.2557L12.8356 19.9997L13.1337 19.9657ZM12.5484 21.8466C13.0005 21.3404 13.2131 20.6548 13.1336 19.9655L12.8356 19.9999C12.9056 20.6066 12.7181 21.2063 12.3247 21.6468L12.5484 21.8466ZM11.0754 22.5698C11.6393 22.5381 12.1603 22.2832 12.5487 21.8463L12.3244 21.647C11.9874 22.0262 11.5402 22.2432 11.0586 22.2702L11.0754 22.5698ZM10.4805 32.3937L11.2166 22.4311L10.9174 22.4089L10.1813 32.3716L10.4805 32.3937ZM9.66813 33.15C10.096 33.15 10.4511 32.82 10.4806 32.393L10.1813 32.3724C10.1627 32.6414 9.93899 32.85 9.66813 32.85V33.15ZM4.33401 33.15H9.66813V32.85H4.33401V33.15ZM3.51903 32.3942C3.55169 32.82 3.9059 33.15 4.33401 33.15V32.85C4.06339 32.85 3.83888 32.6414 3.81816 32.3712L3.51903 32.3942ZM2.78289 22.4311L3.519 32.3937L3.81819 32.3716L3.08207 22.4089L2.78289 22.4311ZM1.4512 21.8467C1.84051 22.2816 2.35986 22.5381 2.92408 22.5698L2.94088 22.2702C2.45969 22.2433 2.01352 22.0251 1.67472 21.6466L1.4512 21.8467ZM0.86583 19.9658C0.787875 20.6548 1.00026 21.3416 1.45107 21.8466L1.67486 21.6468C1.28291 21.2078 1.09524 20.6066 1.16393 19.9996L0.86583 19.9658ZM1.74867 12.2217L0.865844 19.9657L1.16391 19.9997L2.04674 12.2557L1.74867 12.2217ZM5.2969 8.85C3.48512 8.85 1.96703 10.3081 1.74867 12.2217L2.04673 12.2557C2.24981 10.4759 3.65479 9.15 5.2969 9.15V8.85ZM8.70267 8.85H5.2969V9.15H8.70267V8.85ZM11.3312 20.7589C11.2675 20.8304 11.1382 20.9394 10.9551 20.9394V21.2394C11.2626 21.2394 11.4668 21.0576 11.5551 20.9585L11.3312 20.7589ZM11.5128 20.1502C11.539 20.3816 11.4701 20.6025 11.331 20.7591L11.5553 20.9583C11.7549 20.7337 11.846 20.4265 11.8109 20.1165L11.5128 20.1502ZM10.63 12.4064L11.5128 20.1504L11.8109 20.1164L10.9281 12.3724L10.63 12.4064ZM8.70405 10.4834C9.66231 10.4834 10.5024 11.2958 10.63 12.4065L10.9281 12.3722C10.7863 11.1389 9.8421 10.1834 8.70405 10.1834V10.4834ZM5.29822 10.4834H8.70405V10.1834H5.29822V10.4834ZM3.37225 12.4063C3.49859 11.2959 4.3385 10.4834 5.29822 10.4834V10.1834C4.15886 10.1834 3.21451 11.1389 3.07418 12.3724L3.37225 12.4063ZM2.48943 20.1504L3.37225 12.4064L3.07418 12.3724L2.19136 20.1164L2.48943 20.1504ZM2.67127 20.7591C2.53213 20.6024 2.46326 20.3815 2.48944 20.1502L2.19134 20.1165C2.15626 20.4265 2.24742 20.7336 2.44695 20.9583L2.67127 20.7591ZM3.04719 20.9394C2.86436 20.9394 2.73634 20.8309 2.67029 20.758L2.44794 20.9594C2.53653 21.0572 2.73931 21.2394 3.04719 21.2394V20.9394ZM3.55258 20.9394H3.04719V21.2394H3.55258V20.9394ZM4.36755 21.6952C4.33489 21.2694 3.98069 20.9394 3.55258 20.9394V21.2394C3.8232 21.2394 4.04771 21.448 4.06843 21.7182L4.36755 21.6952ZM5.10238 31.6557L4.36758 21.6957L4.0684 21.7177L4.8032 31.6777L5.10238 31.6557ZM9.04816 31.5167H4.95279V31.8167H9.04816V31.5167ZM9.63468 21.6956L8.89857 31.6556L9.19775 31.6777L9.93387 21.7177L9.63468 21.6956ZM10.4497 20.9394C10.0221 20.9394 9.66572 21.269 9.63467 21.6958L9.93388 21.7176C9.95346 21.4484 10.1786 21.2394 10.4497 21.2394V20.9394ZM10.9551 20.9394H10.4497V21.2394H10.9551V20.9394Z" fill="white"/>
</g>
<path opacity="0.5" d="M32.3334 1H11.6667C11.2987 1 11 1.29869 11 1.66669C11 2.03468 11.2987 2.33337 11.6667 2.33337H31.6667V19.6666H15C14.632 19.6666 14.3333 19.9653 14.3333 20.3333C14.3333 20.7013 14.632 21 15 21H32.3333C32.7013 21 33 20.7013 33 20.3333V1.66662C33 1.29862 32.7014 1 32.3334 1Z" fill="white" stroke="white" stroke-width="0.3"/>
<path opacity="0.5" d="M15.2037 16.6866L18.0302 12.0638L20.0598 14.1385C20.198 14.2799 20.3924 14.3505 20.5854 14.3305C20.7798 14.3119 20.9559 14.2039 21.0641 14.0372L23.2319 10.7131L23.9741 11.4718C24.1071 11.6091 24.2884 11.6825 24.4815 11.6652C24.6693 11.6505 24.8428 11.5545 24.9563 11.3998L28.8693 6.06635C29.0858 5.77166 29.0271 5.35433 28.7389 5.13301C28.4506 4.91301 28.0424 4.9717 27.8259 5.26633L24.3641 9.98516L23.592 9.19582C23.4537 9.05582 23.2698 8.98782 23.0663 9.00382C22.872 9.02251 22.6959 9.13051 22.5877 9.29714L20.4198 12.6212L18.3733 10.5292C18.2337 10.3852 18.0368 10.3132 17.8385 10.3385C17.6416 10.3612 17.4655 10.4745 17.3598 10.6465L14.099 15.98C13.9085 16.292 14.0011 16.704 14.3064 16.8987C14.4146 16.968 14.5346 17 14.652 17C14.8684 17 15.081 16.8893 15.2037 16.6866Z" fill="white" stroke="white" stroke-width="0.3"/>
</svg>
