<svg width="33" height="31" viewBox="0 0 33 31" fill="none" xmlns="http://www.w3.org/2000/svg">
<g opacity="0.5">
<path fill-rule="evenodd" clip-rule="evenodd" d="M21.8475 19.4985C22.4282 19.3373 23.1112 19.4561 23.77 19.8323C23.9286 19.9247 27.5313 22.0524 28.5688 24.0131C29.0958 25.0082 28.9144 26.2115 28.1182 27.0077L26.8075 28.3185C25.1918 29.9341 23.4083 30.7468 21.4879 30.7468C20.9433 30.7468 20.3884 30.6812 19.8221 30.5505C17.6878 30.0571 15.4155 28.6177 13.0703 26.272L5.47274 18.6739C0.30969 13.5114 -0.398143 8.76112 3.42571 4.93675L4.73649 3.62597C5.53267 2.82927 6.73444 2.64895 7.73109 3.17544C9.69236 4.21239 11.819 7.81562 11.9083 7.96855C12.2876 8.6335 12.4064 9.31602 12.2457 9.89624C12.1248 10.3328 11.8489 10.6878 11.447 10.9275C10.8166 11.4545 10.0804 12.1081 9.96464 12.2683C9.13694 13.4897 9.23407 14.4625 10.2907 15.5191L16.2251 21.4536C17.2806 22.5091 18.2525 22.6073 19.4775 21.7785C19.6351 21.6644 20.2892 20.9281 20.8167 20.2973C21.0559 19.8953 21.4114 19.6194 21.8475 19.4985ZM26.0769 27.5874L27.3877 26.2766C27.8609 25.8034 27.9684 25.0883 27.6538 24.4962C26.9056 23.0826 24.2221 21.296 23.2512 20.7266C22.8498 20.4977 22.4246 20.412 22.1223 20.4941C21.9363 20.5463 21.7948 20.662 21.6904 20.8475L21.6367 20.9255C21.2693 21.3662 20.3796 22.414 20.0557 22.6341C19.648 22.9106 19.2455 23.1079 18.8498 23.2268C19.6563 23.5982 20.624 23.9186 21.7167 24.0317C22.0004 24.0617 22.2071 24.3154 22.1776 24.5995C22.1497 24.8646 21.9255 25.0625 21.664 25.0625C21.6465 25.0625 21.6284 25.0614 21.6103 25.0599C18.0479 24.69 15.7151 22.427 15.6175 22.3303C15.6017 22.3146 15.5912 22.2963 15.5806 22.2779C15.5752 22.2686 15.5698 22.2593 15.5638 22.2503C15.5541 22.241 15.5444 22.2322 15.5346 22.2233C15.5209 22.2108 15.5071 22.1982 15.4935 22.1846L10.0106 16.7018C10.0047 16.6977 9.99838 16.6947 9.99206 16.6917C9.98403 16.6879 9.976 16.6841 9.96877 16.678C9.85046 16.5804 7.05632 14.2419 6.68329 10.6495C6.65436 10.3654 6.86051 10.1117 7.14416 10.0817C7.42936 10.0569 7.68201 10.2589 7.71197 10.5426C7.80962 11.4834 8.10619 12.3318 8.47354 13.0644C8.58359 12.6134 8.79336 12.1546 9.10956 11.6875C9.32914 11.3636 10.378 10.4739 10.8187 10.106L10.8962 10.0523C11.0827 9.9479 11.1979 9.80634 11.2496 9.62034C11.3338 9.31654 11.2455 8.89235 11.0135 8.48574C10.9964 8.45629 8.94939 4.98894 7.24749 4.08839C7.02171 3.96852 6.77784 3.91065 6.53656 3.91065C6.14544 3.91065 5.75949 4.06359 5.46706 4.35602L4.15627 5.6668C0.762807 9.0613 1.45152 13.1915 6.20331 17.9428L13.8009 25.5409C18.5527 30.2932 22.6834 30.9809 26.0769 27.5874Z" fill="white"/>
<path d="M23.77 19.8323L23.8959 19.6163L23.8939 19.6152L23.77 19.8323ZM21.8475 19.4985L21.9142 19.7394L21.9143 19.7394L21.8475 19.4985ZM28.5688 24.0131L28.3478 24.13L28.3478 24.1301L28.5688 24.0131ZM19.8221 30.5505L19.7658 30.7941L19.7659 30.7941L19.8221 30.5505ZM13.0703 26.272L13.2471 26.0952L13.2471 26.0952L13.0703 26.272ZM5.47274 18.6739L5.64952 18.4971L5.64951 18.4971L5.47274 18.6739ZM3.42571 4.93675L3.24893 4.75998L3.24892 4.75999L3.42571 4.93675ZM4.73649 3.62597L4.91327 3.80275L4.91332 3.80269L4.73649 3.62597ZM7.73109 3.17544L7.84794 2.95443L7.84786 2.95438L7.73109 3.17544ZM11.9083 7.96855L12.1255 7.84469L12.1242 7.84241L11.9083 7.96855ZM12.2457 9.89624L12.0048 9.82951L12.0048 9.82952L12.2457 9.89624ZM11.447 10.9275L11.3189 10.7128L11.3018 10.723L11.2866 10.7357L11.447 10.9275ZM9.96464 12.2683L9.76191 12.1218L9.75768 12.128L9.96464 12.2683ZM19.4775 21.7785L19.6177 21.9857L19.6242 21.981L19.4775 21.7785ZM20.8167 20.2973L21.0085 20.4576L21.0213 20.4423L21.0315 20.4251L20.8167 20.2973ZM27.6538 24.4962L27.4328 24.6131L27.433 24.6135L27.6538 24.4962ZM23.2512 20.7266L23.3777 20.5109L23.3751 20.5094L23.2512 20.7266ZM22.1223 20.4941L22.0568 20.2528L22.0548 20.2534L22.1223 20.4941ZM21.6904 20.8475L21.8963 20.9893L21.9027 20.98L21.9083 20.9701L21.6904 20.8475ZM21.6367 20.9255L21.8287 21.0856L21.836 21.0768L21.8425 21.0673L21.6367 20.9255ZM20.0557 22.6341L20.196 22.8411L20.1962 22.8409L20.0557 22.6341ZM18.8498 23.2268L18.7779 22.9873L18.1449 23.1774L18.7452 23.4538L18.8498 23.2268ZM21.7167 24.0317L21.743 23.7831L21.7425 23.7831L21.7167 24.0317ZM22.1776 24.5995L22.4262 24.6257L22.4263 24.6253L22.1776 24.5995ZM21.6103 25.0599L21.5845 25.3086L21.5889 25.309L21.6103 25.0599ZM15.6175 22.3303L15.4407 22.5071L15.4417 22.5081L15.6175 22.3303ZM15.5806 22.2779L15.7972 22.153L15.7971 22.153L15.5806 22.2779ZM15.5638 22.2503L15.7712 22.1107L15.756 22.0882L15.7365 22.0695L15.5638 22.2503ZM15.5346 22.2233L15.7029 22.0384L15.7029 22.0384L15.5346 22.2233ZM10.0106 16.7018L10.1874 16.525L10.1715 16.5091L10.1529 16.4962L10.0106 16.7018ZM9.99206 16.6917L10.0991 16.4658L10.0991 16.4658L9.99206 16.6917ZM9.96877 16.678L10.1296 16.4866L10.1279 16.4852L9.96877 16.678ZM6.68329 10.6495L6.43458 10.6749L6.43463 10.6754L6.68329 10.6495ZM7.14416 10.0817L7.1225 9.83262L7.11789 9.83311L7.14416 10.0817ZM7.71197 10.5426L7.96064 10.5168L7.96059 10.5163L7.71197 10.5426ZM8.47354 13.0644L8.25006 13.1765L8.5551 13.7849L8.71642 13.1237L8.47354 13.0644ZM9.10956 11.6875L8.90262 11.5473L8.90254 11.5474L9.10956 11.6875ZM10.8187 10.106L10.6762 9.90055L10.6671 9.90692L10.6585 9.91408L10.8187 10.106ZM10.8962 10.0523L10.7741 9.8341L10.7636 9.83997L10.7537 9.84682L10.8962 10.0523ZM11.2496 9.62034L11.4905 9.68725L11.4905 9.68712L11.2496 9.62034ZM11.0135 8.48574L11.2306 8.36185L11.2298 8.36048L11.0135 8.48574ZM7.24749 4.08839L7.13026 4.3092L7.13056 4.30936L7.24749 4.08839ZM5.46706 4.35602L5.64383 4.5328L5.46706 4.35602ZM4.15627 5.6668L3.9795 5.49003L3.97947 5.49005L4.15627 5.6668ZM6.20331 17.9428L6.38009 17.766L6.38007 17.766L6.20331 17.9428ZM13.8009 25.5409L13.9777 25.3641L13.9777 25.3641L13.8009 25.5409ZM23.8939 19.6152C23.1932 19.215 22.4413 19.0742 21.7806 19.2576L21.9143 19.7394C22.4151 19.6004 23.0293 19.6972 23.646 20.0494L23.8939 19.6152ZM28.7897 23.8962C28.2425 22.8619 27.0406 21.8111 25.9899 21.0222C24.929 20.2256 23.9796 19.6651 23.8959 19.6163L23.6441 20.0482C23.7189 20.0919 24.6502 20.6415 25.6897 21.422C26.7394 22.2102 27.8576 23.2036 28.3478 24.13L28.7897 23.8962ZM28.295 27.1845C29.1687 26.3108 29.3681 24.9883 28.7897 23.8961L28.3478 24.1301C28.8234 25.0281 28.6601 26.1123 27.9415 26.8309L28.295 27.1845ZM26.9842 28.4953L28.295 27.1845L27.9415 26.8309L26.6307 28.1417L26.9842 28.4953ZM21.4879 30.9968C23.4868 30.9968 25.3311 30.1484 26.9842 28.4953L26.6307 28.1417C25.0525 29.7199 23.3298 30.4968 21.4879 30.4968V30.9968ZM19.7659 30.7941C20.3493 30.9288 20.923 30.9968 21.4879 30.9968V30.4968C20.9635 30.4968 20.4275 30.4337 19.8784 30.3069L19.7659 30.7941ZM12.8935 26.4487C15.256 28.8117 17.5681 30.286 19.7658 30.7941L19.8784 30.3069C17.8074 29.8282 15.5749 28.4236 13.2471 26.0952L12.8935 26.4487ZM5.29596 18.8507L12.8935 26.4488L13.2471 26.0952L5.64952 18.4971L5.29596 18.8507ZM3.24892 4.75999C1.29005 6.71912 0.474064 8.93921 0.831866 11.3404C1.18736 13.726 2.69581 16.2508 5.29597 18.8507L5.64951 18.4971C3.08662 15.9345 1.65963 13.5028 1.32641 11.2667C0.995492 9.04596 1.73751 6.97876 3.6025 5.11352L3.24892 4.75999ZM4.55971 3.44919L3.24893 4.75998L3.60248 5.11353L4.91327 3.80275L4.55971 3.44919ZM7.84786 2.95438C6.75445 2.37679 5.43357 2.57477 4.55966 3.44925L4.91332 3.80269C5.63177 3.08377 6.71443 2.92112 7.61432 3.39649L7.84786 2.95438ZM12.1242 7.84241C12.0771 7.76179 11.5176 6.81368 10.7216 5.7534C9.93324 4.70336 8.88259 3.50146 7.84794 2.95443L7.61424 3.39645C8.54086 3.88637 9.53414 5.00456 10.3217 6.0536C11.1017 7.09242 11.6502 8.02239 11.6925 8.0947L12.1242 7.84241ZM12.4867 9.96296C12.6695 9.30256 12.5284 8.55123 12.1255 7.8447L11.6912 8.09241C12.0467 8.71578 12.1433 9.32948 12.0048 9.82951L12.4867 9.96296ZM11.575 11.1422C12.0298 10.871 12.3478 10.4643 12.4867 9.96296L12.0048 9.82952C11.9018 10.2014 11.6681 10.5046 11.3189 10.7128L11.575 11.1422ZM10.1673 12.4147C10.1811 12.3956 10.2322 12.3398 10.3302 12.245C10.4223 12.1559 10.5424 12.045 10.68 11.9214C10.9547 11.6744 11.2941 11.3812 11.6073 11.1193L11.2866 10.7357C10.9695 11.0008 10.6256 11.2979 10.3457 11.5495C10.2059 11.6752 10.0808 11.7906 9.98263 11.8856C9.89037 11.9748 9.80609 12.0608 9.762 12.1218L10.1673 12.4147ZM10.4674 15.3423C9.96154 14.8365 9.71479 14.3797 9.6698 13.9306C9.62486 13.4821 9.77623 12.9919 10.1716 12.4085L9.75768 12.128C9.32535 12.766 9.11143 13.373 9.17229 13.9804C9.23308 14.5872 9.56319 15.1452 10.1139 15.6959L10.4674 15.3423ZM16.4019 21.2768L10.4674 15.3423L10.1139 15.6959L16.0483 21.6303L16.4019 21.2768ZM19.3374 21.5715C18.7521 21.9675 18.2613 22.1188 17.8127 22.0739C17.3635 22.0289 16.9073 21.7822 16.4019 21.2768L16.0483 21.6303C16.5985 22.1805 17.1559 22.5106 17.7628 22.5714C18.3703 22.6323 18.9779 22.4184 19.6176 21.9856L19.3374 21.5715ZM20.6249 20.1369C20.3628 20.4504 20.0694 20.7898 19.8225 21.0645C19.6989 21.202 19.5881 21.322 19.4993 21.4139C19.4046 21.5119 19.3493 21.5627 19.3308 21.5761L19.6242 21.981C19.6845 21.9373 19.77 21.8533 19.8588 21.7613C19.9535 21.6634 20.0687 21.5385 20.1943 21.3988C20.4457 21.1191 20.7431 20.775 21.0085 20.4576L20.6249 20.1369ZM21.7807 19.2576C21.28 19.3964 20.8727 19.7143 20.6019 20.1694L21.0315 20.4251C21.2392 20.0762 21.5427 19.8424 21.9142 19.7394L21.7807 19.2576ZM27.2109 26.0999L25.9001 27.4106L26.2537 27.7642L27.5645 26.4534L27.2109 26.0999ZM27.433 24.6135C27.696 25.1085 27.6065 25.7043 27.2109 26.0999L27.5645 26.4534C28.1154 25.9025 28.2408 25.0681 27.8745 24.3789L27.433 24.6135ZM23.1248 20.9423C23.6018 21.222 24.5059 21.8048 25.3817 22.4916C26.2672 23.1858 27.0859 23.9577 27.4328 24.6131L27.8747 24.3793C27.4734 23.6211 26.5764 22.7929 25.6903 22.0981C24.7946 21.3958 23.8715 20.8006 23.3777 20.511L23.1248 20.9423ZM22.1879 20.7354C22.4024 20.677 22.7576 20.7329 23.1274 20.9438L23.3751 20.5094C22.942 20.2625 22.4467 20.1469 22.0568 20.2529L22.1879 20.7354ZM21.9083 20.9701C21.9837 20.836 22.0743 20.7672 22.1899 20.7348L22.0548 20.2534C21.7983 20.3254 21.6058 20.488 21.4725 20.7249L21.9083 20.9701ZM21.8425 21.0673L21.8963 20.9893L21.4845 20.7057L21.4308 20.7837L21.8425 21.0673ZM20.1962 22.8409C20.2994 22.7708 20.4308 22.6481 20.5654 22.5122C20.7042 22.372 20.8603 22.2032 21.016 22.0294C21.3278 21.6816 21.6442 21.3069 21.8287 21.0856L21.4446 20.7655C21.2617 20.9849 20.9497 21.3544 20.6437 21.6957C20.4906 21.8665 20.3406 22.0285 20.21 22.1604C20.0752 22.2966 19.9739 22.3874 19.9152 22.4274L20.1962 22.8409ZM18.9217 23.4662C19.3457 23.3389 19.771 23.1292 20.196 22.8411L19.9154 22.4272C19.525 22.6919 19.1454 22.877 18.7779 22.9873L18.9217 23.4662ZM21.7425 23.7831C20.6828 23.6733 19.7418 23.3624 18.9543 22.9997L18.7452 23.4538C19.5708 23.8341 20.5652 24.1638 21.691 24.2804L21.7425 23.7831ZM22.4263 24.6253C22.47 24.2034 22.1632 23.8275 21.743 23.7831L21.6905 24.2803C21.8376 24.2959 21.9441 24.4273 21.9289 24.5738L22.4263 24.6253ZM21.664 25.3125C22.0523 25.3125 22.3848 25.0191 22.4262 24.6257L21.929 24.5734C21.9146 24.71 21.7987 24.8125 21.664 24.8125V25.3125ZM21.5889 25.309C21.6114 25.3109 21.637 25.3125 21.664 25.3125V24.8125C21.6559 24.8125 21.6454 24.812 21.6317 24.8108L21.5889 25.309ZM15.4417 22.5081C15.5516 22.6169 17.9357 24.9297 21.5845 25.3085L21.6361 24.8112C18.16 24.4503 15.8786 22.237 15.7933 22.1526L15.4417 22.5081ZM15.364 22.4028C15.3724 22.4174 15.3981 22.4645 15.4407 22.5071L15.7943 22.1535C15.8009 22.1602 15.8044 22.1653 15.8047 22.1658C15.8048 22.166 15.8043 22.1653 15.803 22.1631C15.8016 22.1607 15.8 22.1579 15.7972 22.153L15.364 22.4028ZM15.3564 22.3898C15.3563 22.3897 15.3568 22.3904 15.3581 22.3927C15.3596 22.3951 15.3612 22.3979 15.364 22.4029L15.7971 22.153C15.7925 22.1449 15.7829 22.1281 15.7712 22.1107L15.3564 22.3898ZM15.3663 22.4082C15.3764 22.4174 15.3839 22.4242 15.391 22.431L15.7365 22.0695C15.7243 22.0578 15.7123 22.0469 15.7029 22.0384L15.3663 22.4082ZM15.3167 22.3614C15.3351 22.3798 15.3532 22.3962 15.3663 22.4082L15.7029 22.0384C15.6885 22.0253 15.6791 22.0166 15.6703 22.0079L15.3167 22.3614ZM9.83385 16.8785L15.3167 22.3614L15.6703 22.0079L10.1874 16.525L9.83385 16.8785ZM9.88501 16.9176C9.88679 16.9184 9.8872 16.9186 9.88741 16.9187C9.88748 16.9188 9.8866 16.9184 9.88516 16.9176C9.88231 16.9161 9.87608 16.9127 9.86833 16.9073L10.1529 16.4962C10.1275 16.4786 10.1027 16.4674 10.0991 16.4658L9.88501 16.9176ZM9.80799 16.8694C9.8436 16.8994 9.88075 16.9156 9.88503 16.9176L10.0991 16.4658C10.0939 16.4633 10.0974 16.4649 10.102 16.4674C10.1076 16.4706 10.1179 16.4767 10.1296 16.4866L9.80799 16.8694ZM6.43463 10.6754C6.81865 14.3736 9.68474 16.7677 9.80964 16.8708L10.1279 16.4852C10.0162 16.393 7.294 14.1103 6.93195 10.6237L6.43463 10.6754ZM7.11789 9.83311C6.69728 9.87754 6.3917 10.2537 6.43458 10.6749L6.932 10.6242C6.91702 10.477 7.02374 10.3458 7.17042 10.3303L7.11789 9.83311ZM7.96059 10.5163C7.91583 10.0926 7.53885 9.79646 7.1225 9.83266L7.16581 10.3308C7.31986 10.3174 7.44819 10.4253 7.46336 10.5689L7.96059 10.5163ZM8.69702 12.9524C8.33998 12.2403 8.05451 11.4212 7.96064 10.5168L7.46331 10.5684C7.56474 11.5457 7.8724 12.4233 8.25006 13.1765L8.69702 12.9524ZM8.90254 11.5474C8.57254 12.0348 8.34888 12.5207 8.23066 13.0052L8.71642 13.1237C8.8183 12.7061 9.01417 12.2744 9.31658 11.8277L8.90254 11.5474ZM10.6585 9.91408C10.4373 10.0987 10.0623 10.4152 9.71437 10.727C9.5405 10.8828 9.37163 11.039 9.2314 11.1778C9.0955 11.3123 8.97269 11.4439 8.90262 11.5473L9.3165 11.8278C9.35621 11.7692 9.44686 11.6681 9.58314 11.5331C9.71509 11.4025 9.87715 11.2525 10.048 11.0994C10.3895 10.7934 10.7593 10.4812 10.9789 10.2979L10.6585 9.91408ZM10.7537 9.84682L10.6762 9.90055L10.9611 10.3115L11.0386 10.2577L10.7537 9.84682ZM11.0087 9.55343C10.9767 9.66862 10.9087 9.75881 10.7741 9.8341L11.0183 10.2704C11.2567 10.137 11.4191 9.94405 11.4905 9.68725L11.0087 9.55343ZM10.7963 8.60962C11.0112 8.98631 11.068 9.33941 11.0087 9.55355L11.4905 9.68712C11.5996 9.29367 11.4797 8.7984 11.2306 8.36185L10.7963 8.60962ZM7.13056 4.30936C7.52105 4.51598 7.94627 4.87914 8.37066 5.32385C8.79247 5.76586 9.2016 6.27573 9.56126 6.76232C9.92053 7.24841 10.2281 7.70806 10.4469 8.04815C10.5563 8.21809 10.6433 8.35792 10.7034 8.45593C10.7335 8.50494 10.7568 8.54346 10.7727 8.57005C10.789 8.59726 10.7971 8.61103 10.7971 8.611L11.2298 8.36048C11.2182 8.34046 10.6971 7.45789 9.96335 6.46513C9.59638 5.96864 9.17357 5.44097 8.73238 4.97866C8.29376 4.51903 7.82488 4.11107 7.36442 3.86742L7.13056 4.30936ZM6.53656 4.16065C6.73769 4.16065 6.94122 4.20884 7.13026 4.3092L7.36472 3.86758C7.1022 3.72821 6.81799 3.66065 6.53656 3.66065V4.16065ZM5.64383 4.5328C5.8887 4.28793 6.21077 4.16065 6.53656 4.16065V3.66065C6.08011 3.66065 5.63028 3.83925 5.29028 4.17924L5.64383 4.5328ZM4.33305 5.84358L5.64383 4.5328L5.29028 4.17924L3.9795 5.49003L4.33305 5.84358ZM6.38007 17.766C4.02037 15.4066 2.70152 13.2315 2.37192 11.2549C2.04537 9.29658 2.68356 7.49357 4.33308 5.84355L3.97947 5.49005C2.23552 7.23454 1.52134 9.1939 1.87873 11.3371C2.23306 13.4621 3.63446 15.7278 6.02654 18.1196L6.38007 17.766ZM13.9777 25.3641L6.38009 17.766L6.02652 18.1196L13.6241 25.7177L13.9777 25.3641ZM25.9001 27.4106C24.2506 29.0601 22.4477 29.6986 20.4894 29.3722C18.5127 29.0428 16.3374 27.7241 13.9777 25.3641L13.6241 25.7177C16.0162 28.11 18.2821 29.5113 20.4072 29.8654C22.5505 30.2226 24.5097 29.5082 26.2537 27.7642L25.9001 27.4106Z" fill="white"/>
<path d="M15.137 0.251587C14.8513 0.251587 14.6204 0.482537 14.6204 0.768254C14.6204 1.05397 14.8513 1.28492 15.137 1.28492C23.8646 1.28492 30.9651 8.38547 30.9651 17.113C30.9651 17.3987 31.1961 17.6297 31.4818 17.6297C31.7675 17.6297 31.9984 17.3987 31.9984 17.113C31.9984 7.81559 24.4344 0.251587 15.137 0.251587Z" fill="white" stroke="white" stroke-width="0.5"/>
<path d="M15.137 4.91712C21.862 4.91712 27.3324 10.3881 27.3324 17.1125C27.3324 17.3982 27.5634 17.6292 27.8491 17.6292C28.1348 17.6292 28.3658 17.3982 28.3658 17.1125C28.3658 9.81822 22.4313 3.88379 15.137 3.88379C14.8513 3.88379 14.6204 4.11474 14.6204 4.40046C14.6204 4.68617 14.8513 4.91712 15.137 4.91712Z" fill="white" stroke="white" stroke-width="0.5"/>
<path d="M15.137 8.54926C19.8594 8.54926 23.7008 12.3912 23.7008 17.113C23.7008 17.3987 23.9317 17.6297 24.2174 17.6297C24.5032 17.6297 24.7341 17.3987 24.7341 17.113C24.7341 11.8213 20.4287 7.51593 15.137 7.51593C14.8513 7.51593 14.6204 7.74688 14.6204 8.0326C14.6204 8.31831 14.8513 8.54926 15.137 8.54926Z" fill="white" stroke="white" stroke-width="0.5"/>
</g>
</svg>
