<svg width="22" height="24" viewBox="0 0 22 24" fill="none" xmlns="http://www.w3.org/2000/svg">
<g opacity="0.5">
<path fill-rule="evenodd" clip-rule="evenodd" d="M21.2464 19.6179C18.6797 18.4661 18.5821 13.5221 18.5802 13.3974V10.0806C18.5802 6.88835 16.6172 4.14335 13.8276 2.97456C13.8216 1.33334 12.4765 0 10.8236 0C9.17073 0 7.82559 1.33342 7.81955 2.97449C5.03014 4.14328 3.06707 6.88827 3.06707 10.0805V13.3973C3.06526 13.5221 2.96754 18.466 0.400829 19.6178C0.108439 19.7491 -0.0522597 20.0654 0.0153426 20.377C0.0828659 20.6888 0.36026 20.9114 0.681144 20.9114H7.18801C7.3214 21.6406 7.66837 22.3189 8.19904 22.8684C8.90387 23.5981 9.83598 24 10.8235 24C11.8111 24 12.7432 23.5981 13.4479 22.8684C13.9787 22.3189 14.3257 21.6405 14.459 20.9114H20.9658C21.2867 20.9114 21.5641 20.6888 21.6317 20.377C21.6994 20.0654 21.5387 19.7491 21.2464 19.6179ZM17.8653 17.2495C18.1351 18.0623 18.5172 18.8786 19.059 19.5579H2.58817C3.12986 18.8787 3.51191 18.0624 3.78173 17.2495H17.8653ZM12.4012 2.53323C12.2034 1.85275 11.5713 1.35354 10.8236 1.35354C10.076 1.35354 9.44386 1.85279 9.24603 2.53323C9.75559 2.42817 10.2832 2.37284 10.8236 2.37284C11.364 2.37284 11.8916 2.42821 12.4012 2.53323ZM4.42918 13.4015V10.0805C4.42918 6.57682 7.29768 3.72637 10.8236 3.72637C14.3495 3.72637 17.218 6.57682 17.218 10.0805V13.407C17.2189 13.5088 17.2349 14.5787 17.5062 15.8958H4.14082C4.41233 14.5775 4.42835 13.5057 4.42918 13.4015ZM8.58563 20.9114C8.87684 21.9018 9.78408 22.6466 10.8236 22.6466C11.8632 22.6466 12.7703 21.9018 13.0615 20.9114H8.58563Z" fill="white"/>
</g>
</svg>


