<svg width="18" height="20" viewBox="0 0 18 20" fill="none" xmlns="http://www.w3.org/2000/svg">
<path fill-rule="evenodd" clip-rule="evenodd" d="M17.8521 3.44665C17.7756 3.36879 17.6778 3.32966 17.5589 3.32966H13.6184L12.7258 1.15763C12.5983 0.83672 12.3687 0.563554 12.0373 0.338087C11.7057 0.112665 11.3697 0 11.0297 0H6.94902C6.60907 0 6.27319 0.112665 5.94165 0.338087C5.61005 0.563554 5.38052 0.836674 5.25296 1.15763L4.36033 3.32966H0.419978C0.300856 3.32966 0.203218 3.36879 0.126663 3.44665C0.0503301 3.52469 0.0119629 3.62446 0.0119629 3.74583V4.57836C0.0119629 4.69973 0.0501515 4.7995 0.126663 4.8774C0.203218 4.9554 0.301035 4.9944 0.419978 4.9944H1.64407V17.3771C1.64407 18.097 1.84385 18.7104 2.24338 19.2175C2.643 19.725 3.12333 19.9785 3.68445 19.9785H14.2943C14.8555 19.9785 15.3358 19.7163 15.7354 19.1918C16.1349 18.667 16.3346 18.0449 16.3346 17.3252V4.9944H17.5589C17.6778 4.9944 17.7756 4.9554 17.852 4.8774C17.9283 4.79954 17.9668 4.69973 17.9668 4.57836V3.74583C17.9669 3.62446 17.9284 3.52469 17.8521 3.44665ZM6.75781 1.80765C6.81726 1.72966 6.88957 1.68182 6.97457 1.6646H11.0169C11.1019 1.68196 11.1744 1.72975 11.2337 1.80765L11.846 3.32948H6.13295L6.75781 1.80765ZM14.4282 18.2031C14.4918 18.1294 14.5536 18.0123 14.6132 17.852C14.6728 17.6917 14.7025 17.516 14.7024 17.3253V4.9944H3.27644V17.3253C3.27644 17.5159 3.30619 17.6917 3.36564 17.852C3.42517 18.0123 3.48686 18.1294 3.55068 18.2031C3.6146 18.277 3.659 18.3137 3.6845 18.3137H14.2943C14.32 18.3137 14.3643 18.277 14.4282 18.2031Z" fill="#B4B4B4"/>
<path d="M5.31695 15.8165H6.13302C6.25215 15.8165 6.35001 15.7775 6.42634 15.6995C6.50267 15.6213 6.54104 15.5218 6.54104 15.4002V7.90801C6.54104 7.78669 6.50267 7.68692 6.42634 7.60883C6.34978 7.53097 6.25219 7.49197 6.13302 7.49197H5.31695C5.19783 7.49197 5.10015 7.53093 5.02364 7.60883C4.94721 7.68692 4.90894 7.78669 4.90894 7.90801V15.4002C4.90894 15.5218 4.94708 15.6213 5.02364 15.6995C5.10015 15.7775 5.19783 15.8165 5.31695 15.8165Z" fill="#B4B4B4"/>
<path d="M8.58148 15.8165H9.39755C9.51663 15.8165 9.61444 15.7775 9.69073 15.6995C9.76747 15.6213 9.80548 15.5218 9.80548 15.4002V7.90801C9.80548 7.78669 9.76742 7.68692 9.69073 7.60883C9.61444 7.53097 9.51663 7.49197 9.39755 7.49197H8.58148C8.46249 7.49197 8.36467 7.53093 8.28816 7.60883C8.21161 7.68692 8.17346 7.78669 8.17346 7.90801V15.4002C8.17346 15.5218 8.21161 15.6213 8.28816 15.6995C8.36463 15.7775 8.46249 15.8165 8.58148 15.8165Z" fill="#B4B4B4"/>
<path d="M11.8461 15.8165H12.662C12.7812 15.8165 12.8791 15.7775 12.9555 15.6995C13.0319 15.6213 13.0699 15.5218 13.0699 15.4002V7.90801C13.0699 7.78669 13.0319 7.68692 12.9555 7.60883C12.8791 7.53097 12.7812 7.49197 12.662 7.49197H11.8461C11.7268 7.49197 11.6293 7.53093 11.5526 7.60883C11.4762 7.68692 11.438 7.78669 11.438 7.90801V15.4002C11.438 15.5218 11.4762 15.6213 11.5526 15.6995C11.6293 15.7775 11.7268 15.8165 11.8461 15.8165Z" fill="#B4B4B4"/>
</svg>
