<svg width="24" height="24" viewBox="0 0 24 24" fill="none" xmlns="http://www.w3.org/2000/svg">
<path fill-rule="evenodd" clip-rule="evenodd" d="M21.087 9.1949L22.7715 9.48068C23.4885 9.601 24.0099 10.2177 23.9999 10.9446V13.0554C23.9999 13.7823 23.4784 14.399 22.7615 14.5193L21.077 14.8001C20.9065 15.3616 20.6759 15.9081 20.4001 16.4345L21.3928 17.8283C21.814 18.4199 21.7438 19.2271 21.2324 19.7385L19.7383 21.2325C19.4576 21.5133 19.0866 21.6687 18.6905 21.6687C18.3797 21.6687 18.0789 21.5734 17.8282 21.3929L16.4394 20.4003C15.918 20.676 15.3715 20.9016 14.805 21.0771L14.5192 22.7616C14.3989 23.4786 13.7822 24 13.0553 24H10.9396C10.2126 24 9.59593 23.4786 9.47561 22.7616L9.19485 21.0771C8.64837 20.9066 8.11694 20.691 7.61057 20.4253L6.20176 21.428C5.95108 21.6085 5.65528 21.7038 5.34444 21.7038C4.94837 21.7038 4.57737 21.5484 4.29661 21.2676L2.80257 19.7736C2.28618 19.2622 2.221 18.455 2.64214 17.8634L3.62981 16.4897C3.34905 15.9682 3.11843 15.4218 2.94295 14.8602L1.23835 14.5695C0.521409 14.4491 0 13.8325 0 13.1055V10.9948C0 10.2678 0.521409 9.65114 1.23835 9.53081L2.90284 9.25005C3.07331 8.68352 3.2939 8.13704 3.56965 7.61061L2.56694 6.2018C2.1458 5.61019 2.21599 4.80301 2.72737 4.29162L4.22642 2.79758C4.50217 2.51682 4.87818 2.3614 5.27425 2.3614C5.58509 2.3614 5.88591 2.45665 6.13658 2.63714L7.51531 3.62983C8.03672 3.34907 8.58319 3.11845 9.14471 2.94297L9.4355 1.23835C9.55582 0.521412 10.1725 0 10.8995 0H13.0102C13.7371 0 14.3538 0.521412 14.4741 1.23835L14.7549 2.90286C15.3415 3.07834 15.908 3.31398 16.4495 3.59975L17.8432 2.60706C18.0939 2.42657 18.3897 2.33131 18.7005 2.33131C19.0966 2.33131 19.4676 2.48673 19.7484 2.7675L21.2424 4.26154C21.7588 4.77293 21.824 5.58011 21.4028 6.17172L20.4102 7.56048C20.6859 8.08189 20.9115 8.62837 21.087 9.1949ZM22.5459 13.1857C22.6111 13.1757 22.6562 13.1205 22.6562 13.0554H22.6612V10.9446C22.6612 10.8795 22.6161 10.8243 22.5509 10.8143L20.4453 10.4583C20.1845 10.4182 19.969 10.2227 19.9038 9.96198C19.7133 9.22498 19.4225 8.51807 19.0314 7.86129C18.8961 7.63067 18.9061 7.33988 19.0615 7.1243L20.2999 5.38458C20.335 5.32943 20.3299 5.25924 20.2848 5.21412L18.7908 3.72008C18.7557 3.68498 18.7156 3.67997 18.6955 3.67997C18.6705 3.67997 18.6454 3.68999 18.6203 3.70503L16.8906 4.9484C16.67 5.10382 16.3843 5.11385 16.1537 4.97848C15.4818 4.58241 14.7599 4.28661 14.0028 4.09609C13.7421 4.03092 13.5466 3.81533 13.5015 3.54961L13.1505 1.45895C13.1405 1.39377 13.0854 1.34865 13.0202 1.34865H10.9095C10.8443 1.34865 10.7892 1.39377 10.7791 1.45895L10.4182 3.57969C10.373 3.8404 10.1775 4.05097 9.92181 4.12116C9.18482 4.31168 8.47791 4.61249 7.82615 5.00355C7.59553 5.13892 7.30474 5.12889 7.08414 4.97347L5.35447 3.74013C5.33442 3.72509 5.30935 3.71506 5.27927 3.71506C5.2542 3.71506 5.2191 3.72008 5.18401 3.75517L3.68997 5.24922C3.64485 5.29434 3.63984 5.36954 3.67493 5.41968L4.9233 7.17443C5.07872 7.39001 5.09377 7.67579 4.9584 7.90641C4.57236 8.56319 4.28658 9.27512 4.10108 10.0121C4.03591 10.2728 3.82032 10.4684 3.55461 10.5135L1.46396 10.8644C1.39878 10.8745 1.35366 10.9296 1.35366 10.9948V13.1055C1.35366 13.1707 1.39878 13.2258 1.46396 13.2358L3.58469 13.5968C3.84539 13.6419 4.05596 13.8375 4.12615 14.0932C4.31667 14.8302 4.61748 15.5371 5.00854 16.1888C5.1439 16.4195 5.13387 16.7103 4.97845 16.9309L3.74512 18.6605C3.71003 18.7157 3.71504 18.7859 3.76016 18.831L5.2542 20.325C5.28929 20.3601 5.3294 20.3652 5.34946 20.3652C5.37452 20.3652 5.39959 20.3551 5.42466 20.3401L7.1794 19.0917C7.29471 19.0065 7.43509 18.9664 7.57046 18.9664C7.68577 18.9664 7.8061 18.9964 7.91138 19.0566C8.55813 19.4276 9.25 19.7134 9.96693 19.8989C10.2226 19.9641 10.4182 20.1746 10.4633 20.4404L10.8142 22.5461C10.8243 22.6112 10.8794 22.6564 10.9446 22.6564H13.0553C13.1205 22.6564 13.1756 22.6112 13.1856 22.5461L13.5416 20.4404C13.5817 20.1797 13.7772 19.9641 14.0379 19.8989C14.7749 19.7084 15.4818 19.4176 16.1386 19.0265C16.3692 18.8912 16.66 18.9012 16.8756 19.0566L18.6153 20.295C18.6354 20.31 18.6604 20.32 18.6905 20.32C18.7156 20.32 18.7507 20.315 18.7858 20.2799L20.2798 18.7859C20.3249 18.7408 20.3299 18.6656 20.2948 18.6154L19.0565 16.8707C18.9011 16.6501 18.8911 16.3643 19.0264 16.1337C19.4175 15.4769 19.7083 14.77 19.8988 14.033C19.964 13.7773 20.1745 13.5818 20.4402 13.5367L22.5459 13.1857Z" fill="#B4B4B4"/>
<path fill-rule="evenodd" clip-rule="evenodd" d="M6.58826 11.7647C6.58826 8.90838 8.9084 6.58824 11.7647 6.58824C14.6211 6.58824 16.9412 8.90838 16.9412 11.7647C16.9412 14.621 14.6211 16.9412 11.7647 16.9412C8.9084 16.9412 6.58826 14.621 6.58826 11.7647ZM7.94125 11.7647C7.94125 13.8744 9.65505 15.5882 11.7647 15.5882C13.8744 15.5882 15.5882 13.8744 15.5882 11.7647C15.5882 9.65504 13.8744 7.94124 11.7647 7.94124C9.65505 7.94124 7.94125 9.65504 7.94125 11.7647Z" fill="#B4B4B4"/>
</svg>
