<svg width="33" height="26" viewBox="0 0 33 26" fill="none" xmlns="http://www.w3.org/2000/svg">
<g opacity="0.5">
<path fill-rule="evenodd" clip-rule="evenodd" d="M4.78533 1.04878H28.1762C30.2643 1.04878 31.9616 2.77886 31.9552 4.89919V21.1268C31.9552 23.2472 30.2579 24.9707 28.1698 24.9707H4.78533C2.69731 24.9707 1 23.2472 1 21.1268V4.89268C1 2.77236 2.69731 1.04878 4.78533 1.04878ZM28.1762 23.2146C29.3099 23.2146 30.2322 22.278 30.2322 21.1268H30.2258V4.89919C30.2258 3.74797 29.3035 2.81138 28.1698 2.81138H4.78533C3.65165 2.81138 2.72934 3.74797 2.72934 4.89919V21.1268C2.72934 22.278 3.65165 23.2146 4.78533 23.2146H28.1762Z" fill="white"/>
<path d="M31.9552 4.89919L31.8052 4.89874V4.89919H31.9552ZM30.2322 21.1268H30.3822V20.9768H30.2322V21.1268ZM30.2258 21.1268H30.0758V21.2768H30.2258V21.1268ZM28.1762 0.898782H4.78533V1.19878H28.1762V0.898782ZM32.1052 4.89964C32.1118 2.69855 30.3495 0.898782 28.1762 0.898782V1.19878C30.179 1.19878 31.8113 2.85918 31.8052 4.89874L32.1052 4.89964ZM32.1052 21.1268V4.89919H31.8052V21.1268H32.1052ZM28.1698 25.1207C30.3429 25.1207 32.1052 23.3278 32.1052 21.1268H31.8052C31.8052 23.1665 30.1728 24.8207 28.1698 24.8207V25.1207ZM4.78533 25.1207H28.1698V24.8207H4.78533V25.1207ZM0.85 21.1268C0.85 23.3278 2.61231 25.1207 4.78533 25.1207V24.8207C2.78232 24.8207 1.15 23.1665 1.15 21.1268H0.85ZM0.85 4.89268V21.1268H1.15V4.89268H0.85ZM4.78533 0.898782C2.61231 0.898782 0.85 2.6917 0.85 4.89268H1.15C1.15 2.85302 2.78232 1.19878 4.78533 1.19878V0.898782ZM30.0822 21.1268C30.0822 22.1974 29.2249 23.0646 28.1762 23.0646V23.3646C29.3949 23.3646 30.3822 22.3587 30.3822 21.1268H30.0822ZM30.2258 21.2768H30.2322V20.9768H30.2258V21.2768ZM30.0758 4.89919V21.1268H30.3758V4.89919H30.0758ZM28.1698 2.96138C29.2185 2.96138 30.0758 3.82863 30.0758 4.89919H30.3758C30.3758 3.66731 29.3885 2.66138 28.1698 2.66138V2.96138ZM4.78533 2.96138H28.1698V2.66138H4.78533V2.96138ZM2.87934 4.89919C2.87934 3.82863 3.73666 2.96138 4.78533 2.96138V2.66138C3.56665 2.66138 2.57934 3.66731 2.57934 4.89919H2.87934ZM2.87934 21.1268V4.89919H2.57934V21.1268H2.87934ZM4.78533 23.0646C3.73666 23.0646 2.87934 22.1974 2.87934 21.1268H2.57934C2.57934 22.3587 3.56665 23.3646 4.78533 23.3646V23.0646ZM28.1762 23.0646H4.78533V23.3646H28.1762V23.0646Z" fill="#6FC99C"/>
<path d="M20.5223 12.8081L28.093 5.91382C28.4453 5.58862 28.4773 5.03577 28.157 4.67154C27.8368 4.31382 27.2924 4.2813 26.9337 4.6065L16.4936 14.1219L14.4568 12.2748C14.4504 12.2683 14.444 12.2618 14.444 12.2553C14.3992 12.2098 14.3543 12.1707 14.3031 12.1317L6.01509 4.6C5.65641 4.2748 5.11199 4.30732 4.79174 4.67154C4.47149 5.03577 4.50352 5.58862 4.8622 5.91382L12.5225 12.8667L4.89422 20.1187C4.54835 20.4504 4.52914 21.0033 4.85579 21.361C5.02872 21.5431 5.2593 21.6406 5.48988 21.6406C5.70125 21.6406 5.91261 21.5626 6.07914 21.4065L13.8227 14.0504L15.9236 15.9561C16.0901 16.1057 16.295 16.1772 16.5 16.1772C16.705 16.1772 16.9163 16.0992 17.0765 15.9496L19.2349 13.9854L26.9337 21.413C27.1002 21.5756 27.318 21.6537 27.5293 21.6537C27.7599 21.6537 27.9841 21.5626 28.157 21.3805C28.4837 21.0293 28.4709 20.4699 28.125 20.1382L20.5223 12.8081Z" fill="white" stroke="#6FC99C" stroke-width="0.3"/>
</g>
</svg>
