<svg width="20" height="20" viewBox="0 0 20 20" fill="none" xmlns="http://www.w3.org/2000/svg">
<path fill-rule="evenodd" clip-rule="evenodd" d="M16.9714 0.688716L19.2647 2.98607C20.1894 3.91478 20.1894 5.42191 19.2647 6.34656L7.65167 17.9759C7.54984 18.0777 7.42764 18.151 7.28914 18.1877L1.05697 19.9433C0.87774 19.984 0.454114 19.9474 0.242302 19.7315C0.0345624 19.5156 -0.0509773 19.206 0.0304891 18.9168L1.78202 12.6806C1.81868 12.5421 1.892 12.4199 1.99383 12.318L13.615 0.688716C14.9063 -0.6066 16.5234 0.24065 16.9714 0.688716ZM16.7678 6.48912L18.0875 5.16937C18.3645 4.89238 18.3645 4.44024 18.0875 4.16326L15.7942 1.8659C15.5254 1.59707 15.057 1.59707 14.7881 1.8659L13.4684 3.18566L16.7678 6.48912ZM3.76165 12.9046L7.06104 16.2081L15.5906 7.66631L12.2912 4.36285L3.76165 12.9046ZM2.99994 14.4973L5.46837 16.9698L2.03049 17.9392L2.99994 14.4973Z" fill="#B4B4B4"/>
</svg>
